<svg width="1920" height="1080" viewBox="0 0 1920 1080" fill="none" xmlns="http://www.w3.org/2000/svg">
<g clip-path="url(#clip0_203_12)">
<rect width="1920" height="1080" fill="#060606"/>
<path d="M117.946 334.331H141.549V346H105.746V284.118H117.946V334.331ZM153.607 296.494C151.721 296.494 150.071 295.817 148.657 294.461C147.301 293.047 146.624 291.396 146.624 289.511C146.624 287.625 147.301 285.974 148.657 284.56C150.071 283.146 151.721 282.438 153.607 282.438C155.552 282.438 157.202 283.146 158.558 284.56C159.972 285.974 160.68 287.625 160.68 289.511C160.68 291.396 159.972 293.047 158.558 294.461C157.202 295.817 155.552 296.494 153.607 296.494ZM147.95 346V301.799H159.354V346H147.95ZM218.678 300.561C223.747 300.561 227.784 302.211 230.789 305.511C233.854 308.812 235.386 313.232 235.386 318.772V346H223.982V319.568C223.982 316.915 223.334 314.853 222.037 313.379C220.741 311.906 218.914 311.169 216.557 311.169C213.963 311.169 211.93 312.024 210.457 313.733C209.042 315.442 208.335 317.917 208.335 321.159V346H196.931V319.568C196.931 316.915 196.283 314.853 194.986 313.379C193.69 311.906 191.863 311.169 189.505 311.169C186.971 311.169 184.938 312.024 183.405 313.733C181.932 315.442 181.195 317.917 181.195 321.159V346H169.791V301.799H181.195V306.484C183.847 302.535 187.943 300.561 193.483 300.561C198.905 300.561 202.913 302.683 205.506 306.926C208.453 302.683 212.844 300.561 218.678 300.561ZM250.73 296.494C248.844 296.494 247.194 295.817 245.779 294.461C244.424 293.047 243.746 291.396 243.746 289.511C243.746 287.625 244.424 285.974 245.779 284.56C247.194 283.146 248.844 282.438 250.73 282.438C252.675 282.438 254.325 283.146 255.68 284.56C257.095 285.974 257.802 287.625 257.802 289.511C257.802 291.396 257.095 293.047 255.68 294.461C254.325 295.817 252.675 296.494 250.73 296.494ZM245.072 346V301.799H256.476V346H245.072ZM292.197 312.76H282.207V331.148C282.207 332.681 282.591 333.8 283.357 334.508C284.123 335.215 285.243 335.627 286.716 335.745C288.189 335.804 290.016 335.775 292.197 335.657V346C284.359 346.884 278.819 346.147 275.577 343.79C272.395 341.433 270.803 337.219 270.803 331.148V312.76H263.112V301.799H270.803V292.87L282.207 289.422V301.799H292.197V312.76ZM375.629 337.955C369.381 344.144 361.779 347.238 352.821 347.238C343.862 347.238 336.26 344.144 330.013 337.955C323.824 331.708 320.73 324.076 320.73 315.059C320.73 306.042 323.824 298.439 330.013 292.251C336.26 286.004 343.862 282.88 352.821 282.88C361.779 282.88 369.381 286.004 375.629 292.251C381.876 298.439 384.999 306.042 384.999 315.059C384.999 324.076 381.876 331.708 375.629 337.955ZM338.588 329.645C342.419 333.417 347.163 335.303 352.821 335.303C358.478 335.303 363.223 333.417 367.054 329.645C370.884 325.815 372.8 320.952 372.8 315.059C372.8 309.165 370.884 304.303 367.054 300.472C363.223 296.642 358.478 294.726 352.821 294.726C347.163 294.726 342.419 296.642 338.588 300.472C334.757 304.303 332.842 309.165 332.842 315.059C332.842 320.952 334.757 325.815 338.588 329.645ZM404.447 309.401C405.508 306.572 407.247 304.451 409.663 303.036C412.138 301.622 414.879 300.914 417.885 300.914V313.645C414.407 313.232 411.284 313.939 408.514 315.766C405.803 317.593 404.447 320.628 404.447 324.872V346H393.043V301.799H404.447V309.401ZM456.419 284.118H467.823V346H456.419V340.784C453.059 345.087 448.285 347.238 442.097 347.238C436.145 347.238 431.047 344.998 426.804 340.519C422.619 335.981 420.527 330.441 420.527 323.899C420.527 317.357 422.619 311.847 426.804 307.368C431.047 302.83 436.145 300.561 442.097 300.561C448.285 300.561 453.059 302.712 456.419 307.014V284.118ZM435.379 332.916C437.736 335.215 440.683 336.364 444.219 336.364C447.755 336.364 450.672 335.215 452.971 332.916C455.269 330.559 456.419 327.553 456.419 323.899C456.419 320.245 455.269 317.269 452.971 314.971C450.672 312.613 447.755 311.434 444.219 311.434C440.683 311.434 437.736 312.613 435.379 314.971C433.08 317.269 431.931 320.245 431.931 323.899C431.931 327.553 433.08 330.559 435.379 332.916ZM487.888 328.585C489.42 334.125 493.575 336.894 500.353 336.894C504.714 336.894 508.014 335.421 510.254 332.474L519.448 337.779C515.087 344.085 508.663 347.238 500.176 347.238C492.868 347.238 487.004 345.028 482.584 340.607C478.164 336.187 475.954 330.618 475.954 323.899C475.954 317.24 478.134 311.7 482.495 307.28C486.857 302.8 492.455 300.561 499.292 300.561C505.775 300.561 511.108 302.8 515.293 307.28C519.536 311.759 521.658 317.299 521.658 323.899C521.658 325.373 521.511 326.934 521.216 328.585H487.888ZM487.711 319.744H510.254C509.606 316.739 508.25 314.499 506.187 313.026C504.184 311.552 501.885 310.816 499.292 310.816C496.227 310.816 493.693 311.611 491.689 313.203C489.685 314.735 488.359 316.915 487.711 319.744ZM541.023 309.401C542.084 306.572 543.822 304.451 546.239 303.036C548.714 301.622 551.454 300.914 554.46 300.914V313.645C550.983 313.232 547.859 313.939 545.089 315.766C542.378 317.593 541.023 320.628 541.023 324.872V346H529.619V301.799H541.023V309.401ZM570.268 314.352C570.268 315.53 571.035 316.503 572.567 317.269C574.158 317.976 576.074 318.625 578.313 319.214C580.553 319.744 582.792 320.452 585.032 321.336C587.271 322.161 589.157 323.575 590.689 325.579C592.281 327.583 593.076 330.087 593.076 333.093C593.076 337.631 591.367 341.138 587.949 343.613C584.59 346.029 580.376 347.238 575.307 347.238C566.231 347.238 560.043 343.731 556.743 336.718L566.644 331.148C567.94 334.979 570.828 336.894 575.307 336.894C579.374 336.894 581.407 335.627 581.407 333.093C581.407 331.914 580.612 330.971 579.02 330.264C577.488 329.498 575.602 328.82 573.363 328.231C571.123 327.642 568.883 326.905 566.644 326.021C564.404 325.137 562.489 323.752 560.898 321.866C559.365 319.921 558.599 317.505 558.599 314.617C558.599 310.256 560.19 306.837 563.373 304.362C566.614 301.828 570.622 300.561 575.396 300.561C578.991 300.561 582.262 301.386 585.209 303.036C588.155 304.627 590.483 306.926 592.192 309.932L582.468 315.236C581.054 312.23 578.696 310.727 575.396 310.727C573.922 310.727 572.685 311.051 571.683 311.7C570.74 312.348 570.268 313.232 570.268 314.352ZM614.921 333.8L608.291 358.376H599.008L602.544 333.8H614.921Z" fill="#FBFBFB"/>
<g filter="url(#filter0_d_203_12)">
<path d="M130.322 394.118C138.809 394.118 145.881 397.094 151.539 403.047C157.256 408.999 160.114 416.337 160.114 425.059C160.114 433.781 157.256 441.119 151.539 447.071C145.881 453.024 138.809 456 130.322 456H105.746V394.118H130.322ZM130.322 444.331C135.685 444.331 140.047 442.563 143.406 439.027C146.765 435.432 148.445 430.776 148.445 425.059C148.445 419.342 146.765 414.716 143.406 411.18C140.047 407.585 135.685 405.787 130.322 405.787H117.946V444.331H130.322ZM177.873 438.585C179.406 444.125 183.561 446.894 190.338 446.894C194.699 446.894 198 445.421 200.239 442.474L209.433 447.779C205.072 454.085 198.648 457.238 190.161 457.238C182.853 457.238 176.989 455.028 172.569 450.607C168.149 446.187 165.939 440.618 165.939 433.899C165.939 427.24 168.12 421.7 172.481 417.28C176.842 412.8 182.441 410.561 189.277 410.561C195.76 410.561 201.094 412.8 205.278 417.28C209.522 421.759 211.643 427.299 211.643 433.899C211.643 435.373 211.496 436.934 211.201 438.585H177.873ZM177.697 429.744H200.239C199.591 426.739 198.235 424.499 196.173 423.026C194.169 421.552 191.87 420.816 189.277 420.816C186.213 420.816 183.678 421.611 181.675 423.203C179.671 424.735 178.345 426.915 177.697 429.744ZM240.299 457.238C233.639 457.238 228.07 454.998 223.591 450.519C219.171 446.04 216.961 440.5 216.961 433.899C216.961 427.299 219.171 421.759 223.591 417.28C228.07 412.8 233.639 410.561 240.299 410.561C244.601 410.561 248.52 411.592 252.057 413.655C255.593 415.718 258.274 418.488 260.101 421.965L250.288 427.711C249.404 425.884 248.049 424.44 246.222 423.379C244.454 422.318 242.45 421.788 240.211 421.788C236.792 421.788 233.963 422.937 231.724 425.236C229.484 427.475 228.365 430.363 228.365 433.899C228.365 437.376 229.484 440.264 231.724 442.563C233.963 444.802 236.792 445.922 240.211 445.922C242.509 445.922 244.542 445.421 246.31 444.419C248.137 443.358 249.493 441.914 250.377 440.087L260.278 445.745C258.333 449.222 255.593 452.022 252.057 454.144C248.52 456.206 244.601 457.238 240.299 457.238ZM275.255 438.585C276.787 444.125 280.942 446.894 287.719 446.894C292.081 446.894 295.381 445.421 297.621 442.474L306.815 447.779C302.453 454.085 296.029 457.238 287.543 457.238C280.235 457.238 274.371 455.028 269.951 450.607C265.53 446.187 263.32 440.618 263.32 433.899C263.32 427.24 265.501 421.7 269.862 417.28C274.223 412.8 279.822 410.561 286.659 410.561C293.142 410.561 298.475 412.8 302.66 417.28C306.903 421.759 309.025 427.299 309.025 433.899C309.025 435.373 308.877 436.934 308.583 438.585H275.255ZM275.078 429.744H297.621C296.972 426.739 295.617 424.499 293.554 423.026C291.55 421.552 289.252 420.816 286.659 420.816C283.594 420.816 281.06 421.611 279.056 423.203C277.052 424.735 275.726 426.915 275.078 429.744ZM341.562 410.561C346.394 410.561 350.373 412.182 353.496 415.423C356.679 418.664 358.27 423.144 358.27 428.86V456H346.866V430.275C346.866 427.328 346.07 425.088 344.479 423.556C342.888 421.965 340.766 421.169 338.114 421.169C335.167 421.169 332.81 422.083 331.042 423.91C329.274 425.737 328.39 428.477 328.39 432.131V456H316.986V411.799H328.39V416.749C331.16 412.624 335.55 410.561 341.562 410.561ZM393.291 422.76H383.301V441.148C383.301 442.681 383.684 443.8 384.45 444.508C385.216 445.215 386.336 445.627 387.81 445.745C389.283 445.804 391.11 445.775 393.291 445.657V456C385.452 456.884 379.912 456.147 376.671 453.79C373.488 451.433 371.897 447.219 371.897 441.148V422.76H364.206V411.799H371.897V402.87L383.301 399.422V411.799H393.291V422.76ZM413.426 419.401C414.487 416.572 416.225 414.451 418.641 413.036C421.117 411.622 423.857 410.914 426.863 410.914V423.645C423.386 423.232 420.262 423.939 417.492 425.766C414.781 427.593 413.426 430.628 413.426 434.872V456H402.022V411.799H413.426V419.401ZM465.485 411.799H476.889V456H465.485V450.784C462.067 455.087 457.264 457.238 451.076 457.238C445.182 457.238 440.114 454.998 435.87 450.519C431.686 445.981 429.594 440.441 429.594 433.899C429.594 427.357 431.686 421.847 435.87 417.368C440.114 412.83 445.182 410.561 451.076 410.561C457.264 410.561 462.067 412.712 465.485 417.014V411.799ZM444.445 442.916C446.744 445.215 449.661 446.364 453.197 446.364C456.733 446.364 459.651 445.215 461.949 442.916C464.307 440.559 465.485 437.553 465.485 433.899C465.485 430.245 464.307 427.269 461.949 424.971C459.651 422.613 456.733 421.434 453.197 421.434C449.661 421.434 446.744 422.613 444.445 424.971C442.147 427.269 440.998 430.245 440.998 433.899C440.998 437.553 442.147 440.559 444.445 442.916ZM487.23 456V391.466H498.634V456H487.23ZM514.73 406.494C512.844 406.494 511.194 405.817 509.779 404.461C508.424 403.047 507.746 401.396 507.746 399.511C507.746 397.625 508.424 395.974 509.779 394.56C511.194 393.146 512.844 392.438 514.73 392.438C516.675 392.438 518.325 393.146 519.681 394.56C521.095 395.974 521.802 397.625 521.802 399.511C521.802 401.396 521.095 403.047 519.681 404.461C518.325 405.817 516.675 406.494 514.73 406.494ZM509.072 456V411.799H520.476V456H509.072ZM541.089 424.352C541.089 425.53 541.855 426.503 543.387 427.269C544.978 427.976 546.894 428.625 549.133 429.214C551.373 429.744 553.612 430.452 555.852 431.336C558.091 432.161 559.977 433.575 561.51 435.579C563.101 437.583 563.896 440.087 563.896 443.093C563.896 447.631 562.187 451.138 558.769 453.613C555.41 456.029 551.196 457.238 546.128 457.238C537.051 457.238 530.863 453.731 527.563 446.718L537.464 441.148C538.761 444.979 541.648 446.894 546.128 446.894C550.194 446.894 552.227 445.627 552.227 443.093C552.227 441.914 551.432 440.971 549.84 440.264C548.308 439.498 546.422 438.82 544.183 438.231C541.943 437.642 539.704 436.905 537.464 436.021C535.224 435.137 533.309 433.752 531.718 431.866C530.186 429.921 529.419 427.505 529.419 424.617C529.419 420.256 531.011 416.837 534.193 414.362C537.435 411.828 541.442 410.561 546.216 410.561C549.811 410.561 553.082 411.386 556.029 413.036C558.975 414.627 561.303 416.926 563.012 419.932L553.288 425.236C551.874 422.23 549.516 420.727 546.216 420.727C544.743 420.727 543.505 421.051 542.503 421.7C541.56 422.348 541.089 423.232 541.089 424.352ZM580.262 438.585C581.794 444.125 585.949 446.894 592.727 446.894C597.088 446.894 600.388 445.421 602.628 442.474L611.822 447.779C607.461 454.085 601.037 457.238 592.55 457.238C585.242 457.238 579.378 455.028 574.958 450.607C570.538 446.187 568.328 440.618 568.328 433.899C568.328 427.24 570.508 421.7 574.87 417.28C579.231 412.8 584.83 410.561 591.666 410.561C598.149 410.561 603.483 412.8 607.667 417.28C611.91 421.759 614.032 427.299 614.032 433.899C614.032 435.373 613.885 436.934 613.59 438.585H580.262ZM580.085 429.744H602.628C601.98 426.739 600.624 424.499 598.562 423.026C596.558 421.552 594.259 420.816 591.666 420.816C588.601 420.816 586.067 421.611 584.063 423.203C582.06 424.735 580.734 426.915 580.085 429.744ZM655.152 394.118H666.556V456H655.152V450.784C651.793 455.087 647.019 457.238 640.831 457.238C634.879 457.238 629.781 454.998 625.538 450.519C621.353 445.981 619.261 440.441 619.261 433.899C619.261 427.357 621.353 421.847 625.538 417.368C629.781 412.83 634.879 410.561 640.831 410.561C647.019 410.561 651.793 412.712 655.152 417.014V394.118ZM634.113 442.916C636.47 445.215 639.417 446.364 642.953 446.364C646.489 446.364 649.406 445.215 651.705 442.916C654.003 440.559 655.152 437.553 655.152 433.899C655.152 430.245 654.003 427.269 651.705 424.971C649.406 422.613 646.489 421.434 642.953 421.434C639.417 421.434 636.47 422.613 634.113 424.971C631.814 427.269 630.665 430.245 630.665 433.899C630.665 437.553 631.814 440.559 634.113 442.916Z" fill="#44FF40"/>
</g>
<path d="M115.008 542L113.412 537.604H104.592L102.996 542H100.224L107.532 522.4H110.472L117.78 542H115.008ZM105.488 535.168H112.516L108.988 525.508L105.488 535.168ZM138.432 522.4H140.868V542H138.432V539.592C137.219 541.44 135.455 542.364 133.14 542.364C131.18 542.364 129.51 541.655 128.128 540.236C126.747 538.799 126.056 537.053 126.056 535C126.056 532.947 126.747 531.211 128.128 529.792C129.51 528.355 131.18 527.636 133.14 527.636C135.455 527.636 137.219 528.56 138.432 530.408V522.4ZM133.448 540.012C134.867 540.012 136.052 539.536 137.004 538.584C137.956 537.613 138.432 536.419 138.432 535C138.432 533.581 137.956 532.396 137.004 531.444C136.052 530.473 134.867 529.988 133.448 529.988C132.048 529.988 130.872 530.473 129.92 531.444C128.968 532.396 128.492 533.581 128.492 535C128.492 536.419 128.968 537.613 129.92 538.584C130.872 539.536 132.048 540.012 133.448 540.012ZM146.267 536.12C146.51 537.371 147.079 538.341 147.975 539.032C148.89 539.723 150.01 540.068 151.335 540.068C153.183 540.068 154.527 539.387 155.367 538.024L157.439 539.2C156.076 541.309 154.023 542.364 151.279 542.364C149.058 542.364 147.247 541.673 145.847 540.292C144.466 538.892 143.775 537.128 143.775 535C143.775 532.891 144.456 531.136 145.819 529.736C147.182 528.336 148.946 527.636 151.111 527.636C153.164 527.636 154.835 528.364 156.123 529.82C157.43 531.257 158.083 532.993 158.083 535.028C158.083 535.383 158.055 535.747 157.999 536.12H146.267ZM151.111 529.932C149.804 529.932 148.722 530.305 147.863 531.052C147.004 531.78 146.472 532.76 146.267 533.992H155.619C155.414 532.667 154.891 531.659 154.051 530.968C153.211 530.277 152.231 529.932 151.111 529.932ZM167.436 542.364C165.326 542.364 163.572 541.664 162.172 540.264C160.772 538.845 160.072 537.091 160.072 535C160.072 532.909 160.772 531.164 162.172 529.764C163.572 528.345 165.326 527.636 167.436 527.636C168.817 527.636 170.058 527.972 171.16 528.644C172.261 529.297 173.082 530.184 173.624 531.304L171.58 532.48C171.225 531.733 170.674 531.136 169.928 530.688C169.2 530.24 168.369 530.016 167.436 530.016C166.036 530.016 164.86 530.492 163.908 531.444C162.974 532.396 162.508 533.581 162.508 535C162.508 536.4 162.974 537.576 163.908 538.528C164.86 539.48 166.036 539.956 167.436 539.956C168.369 539.956 169.209 539.741 169.956 539.312C170.702 538.864 171.272 538.267 171.664 537.52L173.736 538.724C173.138 539.825 172.28 540.712 171.16 541.384C170.04 542.037 168.798 542.364 167.436 542.364ZM177.658 536.12C177.9 537.371 178.47 538.341 179.366 539.032C180.28 539.723 181.4 540.068 182.726 540.068C184.574 540.068 185.918 539.387 186.758 538.024L188.83 539.2C187.467 541.309 185.414 542.364 182.67 542.364C180.448 542.364 178.638 541.673 177.238 540.292C175.856 538.892 175.166 537.128 175.166 535C175.166 532.891 175.847 531.136 177.21 529.736C178.572 528.336 180.336 527.636 182.502 527.636C184.555 527.636 186.226 528.364 187.514 529.82C188.82 531.257 189.474 532.993 189.474 535.028C189.474 535.383 189.446 535.747 189.39 536.12H177.658ZM182.502 529.932C181.195 529.932 180.112 530.305 179.254 531.052C178.395 531.78 177.863 532.76 177.658 533.992H187.01C186.804 532.667 186.282 531.659 185.442 530.968C184.602 530.277 183.622 529.932 182.502 529.932ZM199.246 527.636C200.888 527.636 202.204 528.159 203.194 529.204C204.183 530.231 204.678 531.631 204.678 533.404V542H202.242V533.544C202.242 532.405 201.934 531.528 201.318 530.912C200.702 530.277 199.852 529.96 198.77 529.96C197.556 529.96 196.576 530.343 195.83 531.108C195.083 531.855 194.71 533.012 194.71 534.58V542H192.274V528H194.71V530.016C195.699 528.429 197.211 527.636 199.246 527.636ZM215.694 530.352H211.97V537.94C211.97 538.631 212.101 539.125 212.362 539.424C212.642 539.704 213.062 539.853 213.622 539.872C214.182 539.872 214.873 539.853 215.694 539.816V542C213.566 542.28 212.008 542.112 211.018 541.496C210.029 540.861 209.534 539.676 209.534 537.94V530.352H206.762V528H209.534V524.808L211.97 524.08V528H215.694V530.352ZM221.097 530.352C221.899 528.616 223.355 527.748 225.465 527.748V530.296C224.27 530.24 223.243 530.557 222.385 531.248C221.526 531.939 221.097 533.049 221.097 534.58V542H218.66V528H221.097V530.352ZM238.674 528H241.11V542H238.674V539.592C237.461 541.44 235.697 542.364 233.382 542.364C231.422 542.364 229.752 541.655 228.37 540.236C226.989 538.799 226.298 537.053 226.298 535C226.298 532.947 226.989 531.211 228.37 529.792C229.752 528.355 231.422 527.636 233.382 527.636C235.697 527.636 237.461 528.56 238.674 530.408V528ZM233.69 540.012C235.109 540.012 236.294 539.536 237.246 538.584C238.198 537.613 238.674 536.419 238.674 535C238.674 533.581 238.198 532.396 237.246 531.444C236.294 530.473 235.109 529.988 233.69 529.988C232.29 529.988 231.114 530.473 230.162 531.444C229.21 532.396 228.734 533.581 228.734 535C228.734 536.419 229.21 537.613 230.162 538.584C231.114 539.536 232.29 540.012 233.69 540.012ZM244.801 542V521.56H247.237V542H244.801ZM252.185 525.452C251.719 525.452 251.327 525.293 251.009 524.976C250.692 524.659 250.533 524.276 250.533 523.828C250.533 523.38 250.692 522.997 251.009 522.68C251.327 522.344 251.719 522.176 252.185 522.176C252.633 522.176 253.016 522.344 253.333 522.68C253.651 522.997 253.809 523.38 253.809 523.828C253.809 524.276 253.651 524.659 253.333 524.976C253.016 525.293 252.633 525.452 252.185 525.452ZM250.953 542V528H253.389V542H250.953ZM259.178 531.78C259.178 532.321 259.449 532.76 259.99 533.096C260.532 533.413 261.185 533.675 261.95 533.88C262.716 534.067 263.481 534.291 264.246 534.552C265.012 534.795 265.665 535.224 266.206 535.84C266.748 536.437 267.018 537.212 267.018 538.164C267.018 539.433 266.524 540.451 265.534 541.216C264.564 541.981 263.313 542.364 261.782 542.364C260.42 542.364 259.253 542.065 258.282 541.468C257.312 540.871 256.621 540.077 256.21 539.088L258.31 537.884C258.534 538.556 258.954 539.088 259.57 539.48C260.186 539.872 260.924 540.068 261.782 540.068C262.585 540.068 263.248 539.919 263.77 539.62C264.293 539.303 264.554 538.817 264.554 538.164C264.554 537.623 264.284 537.193 263.742 536.876C263.201 536.54 262.548 536.279 261.782 536.092C261.017 535.887 260.252 535.653 259.486 535.392C258.721 535.131 258.068 534.701 257.526 534.104C256.985 533.507 256.714 532.741 256.714 531.808C256.714 530.595 257.181 529.596 258.114 528.812C259.066 528.028 260.252 527.636 261.67 527.636C262.809 527.636 263.817 527.897 264.694 528.42C265.59 528.924 266.262 529.633 266.71 530.548L264.666 531.696C264.162 530.501 263.164 529.904 261.67 529.904C260.98 529.904 260.392 530.072 259.906 530.408C259.421 530.725 259.178 531.183 259.178 531.78ZM271.228 536.12C271.471 537.371 272.04 538.341 272.936 539.032C273.851 539.723 274.971 540.068 276.296 540.068C278.144 540.068 279.488 539.387 280.328 538.024L282.4 539.2C281.037 541.309 278.984 542.364 276.24 542.364C274.019 542.364 272.208 541.673 270.808 540.292C269.427 538.892 268.736 537.128 268.736 535C268.736 532.891 269.417 531.136 270.78 529.736C272.143 528.336 273.907 527.636 276.072 527.636C278.125 527.636 279.796 528.364 281.084 529.82C282.391 531.257 283.044 532.993 283.044 535.028C283.044 535.383 283.016 535.747 282.96 536.12H271.228ZM276.072 529.932C274.765 529.932 273.683 530.305 272.824 531.052C271.965 531.78 271.433 532.76 271.228 533.992H280.58C280.375 532.667 279.852 531.659 279.012 530.968C278.172 530.277 277.192 529.932 276.072 529.932ZM297.409 522.4H299.845V542H297.409V539.592C296.195 541.44 294.431 542.364 292.117 542.364C290.157 542.364 288.486 541.655 287.105 540.236C285.723 538.799 285.033 537.053 285.033 535C285.033 532.947 285.723 531.211 287.105 529.792C288.486 528.355 290.157 527.636 292.117 527.636C294.431 527.636 296.195 528.56 297.409 530.408V522.4ZM292.425 540.012C293.843 540.012 295.029 539.536 295.981 538.584C296.933 537.613 297.409 536.419 297.409 535C297.409 533.581 296.933 532.396 295.981 531.444C295.029 530.473 293.843 529.988 292.425 529.988C291.025 529.988 289.849 530.473 288.897 531.444C287.945 532.396 287.469 533.581 287.469 535C287.469 536.419 287.945 537.613 288.897 538.584C289.849 539.536 291.025 540.012 292.425 540.012ZM312.244 536.12C312.486 537.371 313.056 538.341 313.952 539.032C314.866 539.723 315.986 540.068 317.312 540.068C319.16 540.068 320.504 539.387 321.344 538.024L323.416 539.2C322.053 541.309 320 542.364 317.256 542.364C315.034 542.364 313.224 541.673 311.824 540.292C310.442 538.892 309.752 537.128 309.752 535C309.752 532.891 310.433 531.136 311.796 529.736C313.158 528.336 314.922 527.636 317.088 527.636C319.141 527.636 320.812 528.364 322.1 529.82C323.406 531.257 324.06 532.993 324.06 535.028C324.06 535.383 324.032 535.747 323.976 536.12H312.244ZM317.088 529.932C315.781 529.932 314.698 530.305 313.84 531.052C312.981 531.78 312.449 532.76 312.244 533.992H321.596C321.39 532.667 320.868 531.659 320.028 530.968C319.188 530.277 318.208 529.932 317.088 529.932ZM338.355 542H335.499L331.579 536.708L327.631 542H324.775L330.151 534.804L325.083 528H327.967L331.579 532.872L335.191 528H338.047L333.007 534.776L338.355 542ZM346.209 542.364C344.1 542.364 342.345 541.664 340.945 540.264C339.545 538.845 338.845 537.091 338.845 535C338.845 532.909 339.545 531.164 340.945 529.764C342.345 528.345 344.1 527.636 346.209 527.636C347.591 527.636 348.832 527.972 349.933 528.644C351.035 529.297 351.856 530.184 352.397 531.304L350.353 532.48C349.999 531.733 349.448 531.136 348.701 530.688C347.973 530.24 347.143 530.016 346.209 530.016C344.809 530.016 343.633 530.492 342.681 531.444C341.748 532.396 341.281 533.581 341.281 535C341.281 536.4 341.748 537.576 342.681 538.528C343.633 539.48 344.809 539.956 346.209 539.956C347.143 539.956 347.983 539.741 348.729 539.312C349.476 538.864 350.045 538.267 350.437 537.52L352.509 538.724C351.912 539.825 351.053 540.712 349.933 541.384C348.813 542.037 347.572 542.364 346.209 542.364ZM361.886 527.636C363.529 527.636 364.845 528.159 365.834 529.204C366.824 530.231 367.318 531.631 367.318 533.404V542H364.882V533.544C364.882 532.405 364.574 531.528 363.958 530.912C363.342 530.277 362.493 529.96 361.41 529.96C360.197 529.96 359.217 530.343 358.47 531.108C357.724 531.855 357.35 533.012 357.35 534.58V542H354.914V522.4H357.35V530.016C358.34 528.429 359.852 527.636 361.886 527.636ZM382.311 528H384.747V542H382.311V539.592C381.098 541.44 379.334 542.364 377.019 542.364C375.059 542.364 373.388 541.655 372.007 540.236C370.626 538.799 369.935 537.053 369.935 535C369.935 532.947 370.626 531.211 372.007 529.792C373.388 528.355 375.059 527.636 377.019 527.636C379.334 527.636 381.098 528.56 382.311 530.408V528ZM377.327 540.012C378.746 540.012 379.931 539.536 380.883 538.584C381.835 537.613 382.311 536.419 382.311 535C382.311 533.581 381.835 532.396 380.883 531.444C379.931 530.473 378.746 529.988 377.327 529.988C375.927 529.988 374.751 530.473 373.799 531.444C372.847 532.396 372.371 533.581 372.371 535C372.371 536.419 372.847 537.613 373.799 538.584C374.751 539.536 375.927 540.012 377.327 540.012ZM395.41 527.636C397.053 527.636 398.369 528.159 399.358 529.204C400.347 530.231 400.842 531.631 400.842 533.404V542H398.406V533.544C398.406 532.405 398.098 531.528 397.482 530.912C396.866 530.277 396.017 529.96 394.934 529.96C393.721 529.96 392.741 530.343 391.994 531.108C391.247 531.855 390.874 533.012 390.874 534.58V542H388.438V528H390.874V530.016C391.863 528.429 393.375 527.636 395.41 527.636ZM415.863 528H418.271V541.412C418.271 543.484 417.571 545.089 416.171 546.228C414.771 547.385 413.091 547.964 411.131 547.964C409.563 547.964 408.209 547.665 407.071 547.068C405.932 546.489 405.073 545.649 404.495 544.548L406.623 543.344C407.388 544.912 408.909 545.696 411.187 545.696C412.643 545.696 413.781 545.313 414.603 544.548C415.443 543.783 415.863 542.737 415.863 541.412V539.424C414.631 541.291 412.876 542.224 410.599 542.224C408.601 542.224 406.912 541.515 405.531 540.096C404.149 538.677 403.459 536.951 403.459 534.916C403.459 532.881 404.149 531.164 405.531 529.764C406.912 528.345 408.601 527.636 410.599 527.636C412.895 527.636 414.649 528.56 415.863 530.408V528ZM407.323 538.472C408.275 539.424 409.46 539.9 410.879 539.9C412.297 539.9 413.483 539.424 414.435 538.472C415.387 537.52 415.863 536.335 415.863 534.916C415.863 533.516 415.387 532.34 414.435 531.388C413.483 530.436 412.297 529.96 410.879 529.96C409.46 529.96 408.275 530.436 407.323 531.388C406.371 532.34 405.895 533.516 405.895 534.916C405.895 536.335 406.371 537.52 407.323 538.472ZM423.669 536.12C423.912 537.371 424.481 538.341 425.377 539.032C426.292 539.723 427.412 540.068 428.737 540.068C430.585 540.068 431.929 539.387 432.769 538.024L434.841 539.2C433.479 541.309 431.425 542.364 428.681 542.364C426.46 542.364 424.649 541.673 423.249 540.292C421.868 538.892 421.177 537.128 421.177 535C421.177 532.891 421.859 531.136 423.221 529.736C424.584 528.336 426.348 527.636 428.513 527.636C430.567 527.636 432.237 528.364 433.525 529.82C434.832 531.257 435.485 532.993 435.485 535.028C435.485 535.383 435.457 535.747 435.401 536.12H423.669ZM428.513 529.932C427.207 529.932 426.124 530.305 425.265 531.052C424.407 531.78 423.875 532.76 423.669 533.992H433.021C432.816 532.667 432.293 531.659 431.453 530.968C430.613 530.277 429.633 529.932 428.513 529.932ZM461.778 528H464.326L459.986 542H457.494L454.218 531.64L450.942 542H448.45L444.11 528H446.658L449.738 538.64L453.042 528H455.394L458.698 538.668L461.778 528ZM468.064 525.452C467.598 525.452 467.206 525.293 466.888 524.976C466.571 524.659 466.412 524.276 466.412 523.828C466.412 523.38 466.571 522.997 466.888 522.68C467.206 522.344 467.598 522.176 468.064 522.176C468.512 522.176 468.895 522.344 469.212 522.68C469.53 522.997 469.688 523.38 469.688 523.828C469.688 524.276 469.53 524.659 469.212 524.976C468.895 525.293 468.512 525.452 468.064 525.452ZM466.832 542V528H469.268V542H466.832ZM480.601 530.352H476.877V537.94C476.877 538.631 477.007 539.125 477.269 539.424C477.549 539.704 477.969 539.853 478.529 539.872C479.089 539.872 479.779 539.853 480.601 539.816V542C478.473 542.28 476.914 542.112 475.925 541.496C474.935 540.861 474.441 539.676 474.441 537.94V530.352H471.669V528H474.441V524.808L476.877 524.08V528H480.601V530.352ZM490.457 527.636C492.099 527.636 493.415 528.159 494.405 529.204C495.394 530.231 495.889 531.631 495.889 533.404V542H493.453V533.544C493.453 532.405 493.145 531.528 492.529 530.912C491.913 530.277 491.063 529.96 489.981 529.96C488.767 529.96 487.787 530.343 487.041 531.108C486.294 531.855 485.921 533.012 485.921 534.58V542H483.485V522.4H485.921V530.016C486.91 528.429 488.422 527.636 490.457 527.636ZM513.905 530.352H510.181V537.94C510.181 538.631 510.312 539.125 510.573 539.424C510.853 539.704 511.273 539.853 511.833 539.872C512.393 539.872 513.084 539.853 513.905 539.816V542C511.777 542.28 510.219 542.112 509.229 541.496C508.24 540.861 507.745 539.676 507.745 537.94V530.352H504.973V528H507.745V524.808L510.181 524.08V528H513.905V530.352ZM523.761 527.636C525.404 527.636 526.72 528.159 527.709 529.204C528.699 530.231 529.193 531.631 529.193 533.404V542H526.757V533.544C526.757 532.405 526.449 531.528 525.833 530.912C525.217 530.277 524.368 529.96 523.285 529.96C522.072 529.96 521.092 530.343 520.345 531.108C519.599 531.855 519.225 533.012 519.225 534.58V542H516.789V522.4H519.225V530.016C520.215 528.429 521.727 527.636 523.761 527.636ZM534.302 536.12C534.545 537.371 535.114 538.341 536.01 539.032C536.925 539.723 538.045 540.068 539.37 540.068C541.218 540.068 542.562 539.387 543.402 538.024L545.474 539.2C544.111 541.309 542.058 542.364 539.314 542.364C537.093 542.364 535.282 541.673 533.882 540.292C532.501 538.892 531.81 537.128 531.81 535C531.81 532.891 532.491 531.136 533.854 529.736C535.217 528.336 536.981 527.636 539.146 527.636C541.199 527.636 542.87 528.364 544.158 529.82C545.465 531.257 546.118 532.993 546.118 535.028C546.118 535.383 546.09 535.747 546.034 536.12H534.302ZM539.146 529.932C537.839 529.932 536.757 530.305 535.898 531.052C535.039 531.78 534.507 532.76 534.302 533.992H543.654C543.449 532.667 542.926 531.659 542.086 530.968C541.246 530.277 540.266 529.932 539.146 529.932ZM563.646 527.636C565.606 527.636 567.277 528.355 568.658 529.792C570.04 531.211 570.73 532.947 570.73 535C570.73 537.053 570.04 538.799 568.658 540.236C567.277 541.655 565.606 542.364 563.646 542.364C561.332 542.364 559.568 541.44 558.354 539.592V542H555.918V522.4H558.354V530.408C559.568 528.56 561.332 527.636 563.646 527.636ZM563.338 540.012C564.738 540.012 565.914 539.536 566.866 538.584C567.818 537.613 568.294 536.419 568.294 535C568.294 533.581 567.818 532.396 566.866 531.444C565.914 530.473 564.738 529.988 563.338 529.988C561.92 529.988 560.734 530.473 559.782 531.444C558.83 532.396 558.354 533.581 558.354 535C558.354 536.419 558.83 537.613 559.782 538.584C560.734 539.536 561.92 540.012 563.338 540.012ZM575.345 536.12C575.588 537.371 576.157 538.341 577.053 539.032C577.968 539.723 579.088 540.068 580.413 540.068C582.261 540.068 583.605 539.387 584.445 538.024L586.517 539.2C585.154 541.309 583.101 542.364 580.357 542.364C578.136 542.364 576.325 541.673 574.925 540.292C573.544 538.892 572.853 537.128 572.853 535C572.853 532.891 573.534 531.136 574.897 529.736C576.26 528.336 578.024 527.636 580.189 527.636C582.242 527.636 583.913 528.364 585.201 529.82C586.508 531.257 587.161 532.993 587.161 535.028C587.161 535.383 587.133 535.747 587.077 536.12H575.345ZM580.189 529.932C578.882 529.932 577.8 530.305 576.941 531.052C576.082 531.78 575.55 532.76 575.345 533.992H584.697C584.492 532.667 583.969 531.659 583.129 530.968C582.289 530.277 581.309 529.932 580.189 529.932ZM591.514 531.78C591.514 532.321 591.785 532.76 592.326 533.096C592.868 533.413 593.521 533.675 594.286 533.88C595.052 534.067 595.817 534.291 596.582 534.552C597.348 534.795 598.001 535.224 598.542 535.84C599.084 536.437 599.354 537.212 599.354 538.164C599.354 539.433 598.86 540.451 597.87 541.216C596.9 541.981 595.649 542.364 594.118 542.364C592.756 542.364 591.589 542.065 590.618 541.468C589.648 540.871 588.957 540.077 588.546 539.088L590.646 537.884C590.87 538.556 591.29 539.088 591.906 539.48C592.522 539.872 593.26 540.068 594.118 540.068C594.921 540.068 595.584 539.919 596.106 539.62C596.629 539.303 596.89 538.817 596.89 538.164C596.89 537.623 596.62 537.193 596.078 536.876C595.537 536.54 594.884 536.279 594.118 536.092C593.353 535.887 592.588 535.653 591.822 535.392C591.057 535.131 590.404 534.701 589.862 534.104C589.321 533.507 589.05 532.741 589.05 531.808C589.05 530.595 589.517 529.596 590.45 528.812C591.402 528.028 592.588 527.636 594.006 527.636C595.145 527.636 596.153 527.897 597.03 528.42C597.926 528.924 598.598 529.633 599.046 530.548L597.002 531.696C596.498 530.501 595.5 529.904 594.006 529.904C593.316 529.904 592.728 530.072 592.242 530.408C591.757 530.725 591.514 531.183 591.514 531.78ZM609.308 530.352H605.584V537.94C605.584 538.631 605.714 539.125 605.976 539.424C606.256 539.704 606.676 539.853 607.236 539.872C607.796 539.872 608.486 539.853 609.308 539.816V542C607.18 542.28 605.621 542.112 604.632 541.496C603.642 540.861 603.148 539.676 603.148 537.94V530.352H600.376V528H603.148V524.808L605.584 524.08V528H609.308V530.352ZM621.374 531.78C621.374 532.321 621.644 532.76 622.186 533.096C622.727 533.413 623.38 533.675 624.146 533.88C624.911 534.067 625.676 534.291 626.442 534.552C627.207 534.795 627.86 535.224 628.402 535.84C628.943 536.437 629.214 537.212 629.214 538.164C629.214 539.433 628.719 540.451 627.73 541.216C626.759 541.981 625.508 542.364 623.978 542.364C622.615 542.364 621.448 542.065 620.478 541.468C619.507 540.871 618.816 540.077 618.406 539.088L620.506 537.884C620.73 538.556 621.15 539.088 621.766 539.48C622.382 539.872 623.119 540.068 623.978 540.068C624.78 540.068 625.443 539.919 625.966 539.62C626.488 539.303 626.75 538.817 626.75 538.164C626.75 537.623 626.479 537.193 625.938 536.876C625.396 536.54 624.743 536.279 623.978 536.092C623.212 535.887 622.447 535.653 621.682 535.392C620.916 535.131 620.263 534.701 619.722 534.104C619.18 533.507 618.91 532.741 618.91 531.808C618.91 530.595 619.376 529.596 620.31 528.812C621.262 528.028 622.447 527.636 623.866 527.636C625.004 527.636 626.012 527.897 626.89 528.42C627.786 528.924 628.458 529.633 628.906 530.548L626.862 531.696C626.358 530.501 625.359 529.904 623.866 529.904C623.175 529.904 622.587 530.072 622.102 530.408C621.616 530.725 621.374 531.183 621.374 531.78ZM639.826 527.636C641.786 527.636 643.457 528.355 644.838 529.792C646.219 531.211 646.91 532.947 646.91 535C646.91 537.053 646.219 538.799 644.838 540.236C643.457 541.655 641.786 542.364 639.826 542.364C637.511 542.364 635.747 541.44 634.534 539.592V547.6H632.098V528H634.534V530.408C635.747 528.56 637.511 527.636 639.826 527.636ZM639.518 540.012C640.918 540.012 642.094 539.536 643.046 538.584C643.998 537.613 644.474 536.419 644.474 535C644.474 533.581 643.998 532.396 643.046 531.444C642.094 530.473 640.918 529.988 639.518 529.988C638.099 529.988 636.914 530.473 635.962 531.444C635.01 532.396 634.534 533.581 634.534 535C634.534 536.419 635.01 537.613 635.962 538.584C636.914 539.536 638.099 540.012 639.518 540.012ZM651.525 536.12C651.767 537.371 652.337 538.341 653.233 539.032C654.147 539.723 655.267 540.068 656.593 540.068C658.441 540.068 659.785 539.387 660.625 538.024L662.697 539.2C661.334 541.309 659.281 542.364 656.537 542.364C654.315 542.364 652.505 541.673 651.105 540.292C649.723 538.892 649.033 537.128 649.033 535C649.033 532.891 649.714 531.136 651.077 529.736C652.439 528.336 654.203 527.636 656.369 527.636C658.422 527.636 660.093 528.364 661.381 529.82C662.687 531.257 663.341 532.993 663.341 535.028C663.341 535.383 663.313 535.747 663.257 536.12H651.525ZM656.369 529.932C655.062 529.932 653.979 530.305 653.121 531.052C652.262 531.78 651.73 532.76 651.525 533.992H660.877C660.671 532.667 660.149 531.659 659.309 530.968C658.469 530.277 657.489 529.932 656.369 529.932ZM667.822 536.12C668.064 537.371 668.634 538.341 669.53 539.032C670.444 539.723 671.564 540.068 672.89 540.068C674.738 540.068 676.082 539.387 676.922 538.024L678.994 539.2C677.631 541.309 675.578 542.364 672.834 542.364C670.612 542.364 668.802 541.673 667.402 540.292C666.02 538.892 665.33 537.128 665.33 535C665.33 532.891 666.011 531.136 667.374 529.736C668.736 528.336 670.5 527.636 672.666 527.636C674.719 527.636 676.39 528.364 677.678 529.82C678.984 531.257 679.638 532.993 679.638 535.028C679.638 535.383 679.61 535.747 679.554 536.12H667.822ZM672.666 529.932C671.359 529.932 670.276 530.305 669.418 531.052C668.559 531.78 668.027 532.76 667.822 533.992H677.174C676.968 532.667 676.446 531.659 675.606 530.968C674.766 530.277 673.786 529.932 672.666 529.932ZM694.003 522.4H696.439V542H694.003V539.592C692.789 541.44 691.025 542.364 688.711 542.364C686.751 542.364 685.08 541.655 683.699 540.236C682.317 538.799 681.627 537.053 681.627 535C681.627 532.947 682.317 531.211 683.699 529.792C685.08 528.355 686.751 527.636 688.711 527.636C691.025 527.636 692.789 528.56 694.003 530.408V522.4ZM689.019 540.012C690.437 540.012 691.623 539.536 692.575 538.584C693.527 537.613 694.003 536.419 694.003 535C694.003 533.581 693.527 532.396 692.575 531.444C691.623 530.473 690.437 529.988 689.019 529.988C687.619 529.988 686.443 530.473 685.491 531.444C684.539 532.396 684.062 533.581 684.062 535C684.062 536.419 684.539 537.613 685.491 538.584C686.443 539.536 687.619 540.012 689.019 540.012ZM702.202 531.78C702.202 532.321 702.473 532.76 703.014 533.096C703.555 533.413 704.209 533.675 704.974 533.88C705.739 534.067 706.505 534.291 707.27 534.552C708.035 534.795 708.689 535.224 709.23 535.84C709.771 536.437 710.042 537.212 710.042 538.164C710.042 539.433 709.547 540.451 708.558 541.216C707.587 541.981 706.337 542.364 704.806 542.364C703.443 542.364 702.277 542.065 701.306 541.468C700.335 540.871 699.645 540.077 699.234 539.088L701.334 537.884C701.558 538.556 701.978 539.088 702.594 539.48C703.21 539.872 703.947 540.068 704.806 540.068C705.609 540.068 706.271 539.919 706.794 539.62C707.317 539.303 707.578 538.817 707.578 538.164C707.578 537.623 707.307 537.193 706.766 536.876C706.225 536.54 705.571 536.279 704.806 536.092C704.041 535.887 703.275 535.653 702.51 535.392C701.745 535.131 701.091 534.701 700.55 534.104C700.009 533.507 699.738 532.741 699.738 531.808C699.738 530.595 700.205 529.596 701.138 528.812C702.09 528.028 703.275 527.636 704.694 527.636C705.833 527.636 706.841 527.897 707.718 528.42C708.614 528.924 709.286 529.633 709.734 530.548L707.69 531.696C707.186 530.501 706.187 529.904 704.694 529.904C704.003 529.904 703.415 530.072 702.93 530.408C702.445 530.725 702.202 531.183 702.202 531.78ZM716.265 539.116L714.445 545.92H712.345L713.465 539.116H716.265ZM726.707 542V521.56H729.143V542H726.707ZM744.676 540.236C743.238 541.655 741.493 542.364 739.44 542.364C737.386 542.364 735.641 541.655 734.204 540.236C732.785 538.817 732.076 537.072 732.076 535C732.076 532.928 732.785 531.183 734.204 529.764C735.641 528.345 737.386 527.636 739.44 527.636C741.493 527.636 743.238 528.345 744.676 529.764C746.113 531.183 746.832 532.928 746.832 535C746.832 537.072 746.113 538.817 744.676 540.236ZM739.44 539.984C740.84 539.984 742.016 539.508 742.968 538.556C743.92 537.604 744.396 536.419 744.396 535C744.396 533.581 743.92 532.396 742.968 531.444C742.016 530.492 740.84 530.016 739.44 530.016C738.058 530.016 736.892 530.492 735.94 531.444C734.988 532.396 734.512 533.581 734.512 535C734.512 536.419 734.988 537.604 735.94 538.556C736.892 539.508 738.058 539.984 739.44 539.984ZM765.649 528H768.197L763.857 542H761.365L758.089 531.64L754.813 542H752.321L747.981 528H750.529L753.609 538.64L756.913 528H759.265L762.569 538.668L765.649 528ZM771.865 536.12C772.107 537.371 772.677 538.341 773.573 539.032C774.487 539.723 775.607 540.068 776.933 540.068C778.781 540.068 780.125 539.387 780.965 538.024L783.037 539.2C781.674 541.309 779.621 542.364 776.877 542.364C774.655 542.364 772.845 541.673 771.445 540.292C770.063 538.892 769.373 537.128 769.373 535C769.373 532.891 770.054 531.136 771.417 529.736C772.779 528.336 774.543 527.636 776.709 527.636C778.762 527.636 780.433 528.364 781.721 529.82C783.027 531.257 783.681 532.993 783.681 535.028C783.681 535.383 783.653 535.747 783.597 536.12H771.865ZM776.709 529.932C775.402 529.932 774.319 530.305 773.461 531.052C772.602 531.78 772.07 532.76 771.865 533.992H781.217C781.011 532.667 780.489 531.659 779.649 530.968C778.809 530.277 777.829 529.932 776.709 529.932ZM788.034 531.78C788.034 532.321 788.305 532.76 788.846 533.096C789.387 533.413 790.041 533.675 790.806 533.88C791.571 534.067 792.337 534.291 793.102 534.552C793.867 534.795 794.521 535.224 795.062 535.84C795.603 536.437 795.874 537.212 795.874 538.164C795.874 539.433 795.379 540.451 794.39 541.216C793.419 541.981 792.169 542.364 790.638 542.364C789.275 542.364 788.109 542.065 787.138 541.468C786.167 540.871 785.477 540.077 785.066 539.088L787.166 537.884C787.39 538.556 787.81 539.088 788.426 539.48C789.042 539.872 789.779 540.068 790.638 540.068C791.441 540.068 792.103 539.919 792.626 539.62C793.149 539.303 793.41 538.817 793.41 538.164C793.41 537.623 793.139 537.193 792.598 536.876C792.057 536.54 791.403 536.279 790.638 536.092C789.873 535.887 789.107 535.653 788.342 535.392C787.577 535.131 786.923 534.701 786.382 534.104C785.841 533.507 785.57 532.741 785.57 531.808C785.57 530.595 786.037 529.596 786.97 528.812C787.922 528.028 789.107 527.636 790.526 527.636C791.665 527.636 792.673 527.897 793.55 528.42C794.446 528.924 795.118 529.633 795.566 530.548L793.522 531.696C793.018 530.501 792.019 529.904 790.526 529.904C789.835 529.904 789.247 530.072 788.762 530.408C788.277 530.725 788.034 531.183 788.034 531.78ZM805.827 530.352H802.103V537.94C802.103 538.631 802.234 539.125 802.495 539.424C802.775 539.704 803.195 539.853 803.755 539.872C804.315 539.872 805.006 539.853 805.827 539.816V542C803.699 542.28 802.141 542.112 801.151 541.496C800.162 540.861 799.667 539.676 799.667 537.94V530.352H796.895V528H799.667V524.808L802.103 524.08V528H805.827V530.352ZM822.989 524.388C820.525 524.183 819.293 525.247 819.293 527.58V528H822.989V530.352H819.293V542H816.857V530.352H814.617V528H816.857V527.58C816.857 525.695 817.38 524.267 818.425 523.296C819.489 522.325 821.011 521.905 822.989 522.036V524.388ZM825.786 536.12C826.029 537.371 826.598 538.341 827.494 539.032C828.409 539.723 829.529 540.068 830.854 540.068C832.702 540.068 834.046 539.387 834.886 538.024L836.958 539.2C835.596 541.309 833.542 542.364 830.798 542.364C828.577 542.364 826.766 541.673 825.366 540.292C823.985 538.892 823.294 537.128 823.294 535C823.294 532.891 823.976 531.136 825.338 529.736C826.701 528.336 828.465 527.636 830.63 527.636C832.684 527.636 834.354 528.364 835.642 529.82C836.949 531.257 837.602 532.993 837.602 535.028C837.602 535.383 837.574 535.747 837.518 536.12H825.786ZM830.63 529.932C829.324 529.932 828.241 530.305 827.382 531.052C826.524 531.78 825.992 532.76 825.786 533.992H835.138C834.933 532.667 834.41 531.659 833.57 530.968C832.73 530.277 831.75 529.932 830.63 529.932ZM842.083 536.12C842.326 537.371 842.895 538.341 843.791 539.032C844.706 539.723 845.826 540.068 847.151 540.068C848.999 540.068 850.343 539.387 851.183 538.024L853.255 539.2C851.893 541.309 849.839 542.364 847.095 542.364C844.874 542.364 843.063 541.673 841.663 540.292C840.282 538.892 839.591 537.128 839.591 535C839.591 532.891 840.273 531.136 841.635 529.736C842.998 528.336 844.762 527.636 846.927 527.636C848.981 527.636 850.651 528.364 851.939 529.82C853.246 531.257 853.899 532.993 853.899 535.028C853.899 535.383 853.871 535.747 853.815 536.12H842.083ZM846.927 529.932C845.621 529.932 844.538 530.305 843.679 531.052C842.821 531.78 842.289 532.76 842.083 533.992H851.435C851.23 532.667 850.707 531.659 849.867 530.968C849.027 530.277 848.047 529.932 846.927 529.932ZM858.253 531.78C858.253 532.321 858.523 532.76 859.065 533.096C859.606 533.413 860.259 533.675 861.025 533.88C861.79 534.067 862.555 534.291 863.321 534.552C864.086 534.795 864.739 535.224 865.281 535.84C865.822 536.437 866.093 537.212 866.093 538.164C866.093 539.433 865.598 540.451 864.609 541.216C863.638 541.981 862.387 542.364 860.857 542.364C859.494 542.364 858.327 542.065 857.357 541.468C856.386 540.871 855.695 540.077 855.285 539.088L857.385 537.884C857.609 538.556 858.029 539.088 858.645 539.48C859.261 539.872 859.998 540.068 860.857 540.068C861.659 540.068 862.322 539.919 862.845 539.62C863.367 539.303 863.629 538.817 863.629 538.164C863.629 537.623 863.358 537.193 862.817 536.876C862.275 536.54 861.622 536.279 860.857 536.092C860.091 535.887 859.326 535.653 858.561 535.392C857.795 535.131 857.142 534.701 856.601 534.104C856.059 533.507 855.789 532.741 855.789 531.808C855.789 530.595 856.255 529.596 857.189 528.812C858.141 528.028 859.326 527.636 860.745 527.636C861.883 527.636 862.891 527.897 863.769 528.42C864.665 528.924 865.337 529.633 865.785 530.548L863.741 531.696C863.237 530.501 862.238 529.904 860.745 529.904C860.054 529.904 859.466 530.072 858.981 530.408C858.495 530.725 858.253 531.183 858.253 531.78ZM887.569 528H890.005V542H887.569V539.592C886.356 541.44 884.592 542.364 882.277 542.364C880.317 542.364 878.646 541.655 877.265 540.236C875.884 538.799 875.193 537.053 875.193 535C875.193 532.947 875.884 531.211 877.265 529.792C878.646 528.355 880.317 527.636 882.277 527.636C884.592 527.636 886.356 528.56 887.569 530.408V528ZM882.585 540.012C884.004 540.012 885.189 539.536 886.141 538.584C887.093 537.613 887.569 536.419 887.569 535C887.569 533.581 887.093 532.396 886.141 531.444C885.189 530.473 884.004 529.988 882.585 529.988C881.185 529.988 880.009 530.473 879.057 531.444C878.105 532.396 877.629 533.581 877.629 535C877.629 536.419 878.105 537.613 879.057 538.584C880.009 539.536 881.185 540.012 882.585 540.012ZM900.668 527.636C902.31 527.636 903.626 528.159 904.616 529.204C905.605 530.231 906.1 531.631 906.1 533.404V542H903.664V533.544C903.664 532.405 903.356 531.528 902.74 530.912C902.124 530.277 901.274 529.96 900.192 529.96C898.978 529.96 897.998 530.343 897.252 531.108C896.505 531.855 896.132 533.012 896.132 534.58V542H893.696V528H896.132V530.016C897.121 528.429 898.633 527.636 900.668 527.636ZM921.092 522.4H923.528V542H921.092V539.592C919.879 541.44 918.115 542.364 915.8 542.364C913.84 542.364 912.17 541.655 910.788 540.236C909.407 538.799 908.716 537.053 908.716 535C908.716 532.947 909.407 531.211 910.788 529.792C912.17 528.355 913.84 527.636 915.8 527.636C918.115 527.636 919.879 528.56 921.092 530.408V522.4ZM916.108 540.012C917.527 540.012 918.712 539.536 919.664 538.584C920.616 537.613 921.092 536.419 921.092 535C921.092 533.581 920.616 532.396 919.664 531.444C918.712 530.473 917.527 529.988 916.108 529.988C914.708 529.988 913.532 530.473 912.58 531.444C911.628 532.396 911.152 533.581 911.152 535C911.152 536.419 911.628 537.613 912.58 538.584C913.532 539.536 914.708 540.012 916.108 540.012ZM116.968 562.636C118.536 562.636 119.805 563.149 120.776 564.176C121.747 565.184 122.232 566.556 122.232 568.292V577H119.796V568.376C119.796 567.293 119.516 566.453 118.956 565.856C118.396 565.259 117.649 564.96 116.716 564.96C115.671 564.96 114.831 565.315 114.196 566.024C113.58 566.715 113.272 567.779 113.272 569.216V577H110.836V568.376C110.836 567.293 110.565 566.453 110.024 565.856C109.501 565.259 108.783 564.96 107.868 564.96C106.841 564.96 105.983 565.315 105.292 566.024C104.62 566.733 104.284 567.797 104.284 569.216V577H101.848V563H104.284V564.876C105.236 563.383 106.627 562.636 108.456 562.636C110.341 562.636 111.713 563.429 112.572 565.016C113.543 563.429 115.008 562.636 116.968 562.636ZM137.202 563H139.638V577H137.202V574.592C135.988 576.44 134.224 577.364 131.91 577.364C129.95 577.364 128.279 576.655 126.898 575.236C125.516 573.799 124.826 572.053 124.826 570C124.826 567.947 125.516 566.211 126.898 564.792C128.279 563.355 129.95 562.636 131.91 562.636C134.224 562.636 135.988 563.56 137.202 565.408V563ZM132.218 575.012C133.636 575.012 134.822 574.536 135.774 573.584C136.726 572.613 137.202 571.419 137.202 570C137.202 568.581 136.726 567.396 135.774 566.444C134.822 565.473 133.636 564.988 132.218 564.988C130.818 564.988 129.642 565.473 128.69 566.444C127.738 567.396 127.262 568.581 127.262 570C127.262 571.419 127.738 572.613 128.69 573.584C129.642 574.536 130.818 575.012 132.218 575.012ZM155.48 577H152.624L148.704 571.708L144.756 577H141.9L147.276 569.804L142.208 563H145.092L148.704 567.872L152.316 563H155.172L150.132 569.776L155.48 577ZM158.971 560.452C158.504 560.452 158.112 560.293 157.795 559.976C157.477 559.659 157.319 559.276 157.319 558.828C157.319 558.38 157.477 557.997 157.795 557.68C158.112 557.344 158.504 557.176 158.971 557.176C159.419 557.176 159.801 557.344 160.119 557.68C160.436 557.997 160.595 558.38 160.595 558.828C160.595 559.276 160.436 559.659 160.119 559.976C159.801 560.293 159.419 560.452 158.971 560.452ZM157.739 577V563H160.175V577H157.739ZM179.011 562.636C180.579 562.636 181.848 563.149 182.819 564.176C183.79 565.184 184.275 566.556 184.275 568.292V577H181.839V568.376C181.839 567.293 181.559 566.453 180.999 565.856C180.439 565.259 179.692 564.96 178.759 564.96C177.714 564.96 176.874 565.315 176.239 566.024C175.623 566.715 175.315 567.779 175.315 569.216V577H172.879V568.376C172.879 567.293 172.608 566.453 172.067 565.856C171.544 565.259 170.826 564.96 169.911 564.96C168.884 564.96 168.026 565.315 167.335 566.024C166.663 566.733 166.327 567.797 166.327 569.216V577H163.891V563H166.327V564.876C167.279 563.383 168.67 562.636 170.499 562.636C172.384 562.636 173.756 563.429 174.615 565.016C175.586 563.429 177.051 562.636 179.011 562.636ZM197.313 563H199.749V577H197.313V574.984C196.323 576.571 194.811 577.364 192.777 577.364C191.134 577.364 189.818 576.851 188.829 575.824C187.839 574.779 187.345 573.369 187.345 571.596V563H189.781V571.456C189.781 572.595 190.089 573.481 190.705 574.116C191.321 574.732 192.17 575.04 193.253 575.04C194.466 575.04 195.446 574.667 196.193 573.92C196.939 573.155 197.313 571.988 197.313 570.42V563ZM218.577 562.636C220.145 562.636 221.415 563.149 222.385 564.176C223.356 565.184 223.841 566.556 223.841 568.292V577H221.405V568.376C221.405 567.293 221.125 566.453 220.565 565.856C220.005 565.259 219.259 564.96 218.325 564.96C217.28 564.96 216.44 565.315 215.805 566.024C215.189 566.715 214.881 567.779 214.881 569.216V577H212.445V568.376C212.445 567.293 212.175 566.453 211.633 565.856C211.111 565.259 210.392 564.96 209.477 564.96C208.451 564.96 207.592 565.315 206.901 566.024C206.229 566.733 205.893 567.797 205.893 569.216V577H203.457V563H205.893V564.876C206.845 563.383 208.236 562.636 210.065 562.636C211.951 562.636 213.323 563.429 214.181 565.016C215.152 563.429 216.617 562.636 218.577 562.636ZM240.799 577.364C238.69 577.364 236.935 576.664 235.535 575.264C234.135 573.845 233.435 572.091 233.435 570C233.435 567.909 234.135 566.164 235.535 564.764C236.935 563.345 238.69 562.636 240.799 562.636C242.18 562.636 243.422 562.972 244.523 563.644C245.624 564.297 246.446 565.184 246.987 566.304L244.943 567.48C244.588 566.733 244.038 566.136 243.291 565.688C242.563 565.24 241.732 565.016 240.799 565.016C239.399 565.016 238.223 565.492 237.271 566.444C236.338 567.396 235.871 568.581 235.871 570C235.871 571.4 236.338 572.576 237.271 573.528C238.223 574.48 239.399 574.956 240.799 574.956C241.732 574.956 242.572 574.741 243.319 574.312C244.066 573.864 244.635 573.267 245.027 572.52L247.099 573.724C246.502 574.825 245.643 575.712 244.523 576.384C243.403 577.037 242.162 577.364 240.799 577.364ZM259.192 563H261.628V577H259.192V574.984C258.202 576.571 256.69 577.364 254.656 577.364C253.013 577.364 251.697 576.851 250.708 575.824C249.718 574.779 249.224 573.369 249.224 571.596V563H251.66V571.456C251.66 572.595 251.968 573.481 252.584 574.116C253.2 574.732 254.049 575.04 255.132 575.04C256.345 575.04 257.325 574.667 258.072 573.92C258.818 573.155 259.192 571.988 259.192 570.42V563ZM267.409 566.78C267.409 567.321 267.68 567.76 268.221 568.096C268.762 568.413 269.416 568.675 270.181 568.88C270.946 569.067 271.712 569.291 272.477 569.552C273.242 569.795 273.896 570.224 274.437 570.84C274.978 571.437 275.249 572.212 275.249 573.164C275.249 574.433 274.754 575.451 273.765 576.216C272.794 576.981 271.544 577.364 270.013 577.364C268.65 577.364 267.484 577.065 266.513 576.468C265.542 575.871 264.852 575.077 264.441 574.088L266.541 572.884C266.765 573.556 267.185 574.088 267.801 574.48C268.417 574.872 269.154 575.068 270.013 575.068C270.816 575.068 271.478 574.919 272.001 574.62C272.524 574.303 272.785 573.817 272.785 573.164C272.785 572.623 272.514 572.193 271.973 571.876C271.432 571.54 270.778 571.279 270.013 571.092C269.248 570.887 268.482 570.653 267.717 570.392C266.952 570.131 266.298 569.701 265.757 569.104C265.216 568.507 264.945 567.741 264.945 566.808C264.945 565.595 265.412 564.596 266.345 563.812C267.297 563.028 268.482 562.636 269.901 562.636C271.04 562.636 272.048 562.897 272.925 563.42C273.821 563.924 274.493 564.633 274.941 565.548L272.897 566.696C272.393 565.501 271.394 564.904 269.901 564.904C269.21 564.904 268.622 565.072 268.137 565.408C267.652 565.725 267.409 566.183 267.409 566.78ZM285.202 565.352H281.478V572.94C281.478 573.631 281.609 574.125 281.87 574.424C282.15 574.704 282.57 574.853 283.13 574.872C283.69 574.872 284.381 574.853 285.202 574.816V577C283.074 577.28 281.516 577.112 280.526 576.496C279.537 575.861 279.042 574.676 279.042 572.94V565.352H276.27V563H279.042V559.808L281.478 559.08V563H285.202V565.352ZM299.191 575.236C297.754 576.655 296.009 577.364 293.955 577.364C291.902 577.364 290.157 576.655 288.719 575.236C287.301 573.817 286.591 572.072 286.591 570C286.591 567.928 287.301 566.183 288.719 564.764C290.157 563.345 291.902 562.636 293.955 562.636C296.009 562.636 297.754 563.345 299.191 564.764C300.629 566.183 301.347 567.928 301.347 570C301.347 572.072 300.629 573.817 299.191 575.236ZM293.955 574.984C295.355 574.984 296.531 574.508 297.483 573.556C298.435 572.604 298.911 571.419 298.911 570C298.911 568.581 298.435 567.396 297.483 566.444C296.531 565.492 295.355 565.016 293.955 565.016C292.574 565.016 291.407 565.492 290.455 566.444C289.503 567.396 289.027 568.581 289.027 570C289.027 571.419 289.503 572.604 290.455 573.556C291.407 574.508 292.574 574.984 293.955 574.984ZM315.811 557.4H318.247V577H315.811V574.592C314.598 576.44 312.834 577.364 310.519 577.364C308.559 577.364 306.888 576.655 305.507 575.236C304.126 573.799 303.435 572.053 303.435 570C303.435 567.947 304.126 566.211 305.507 564.792C306.888 563.355 308.559 562.636 310.519 562.636C312.834 562.636 314.598 563.56 315.811 565.408V557.4ZM310.827 575.012C312.246 575.012 313.431 574.536 314.383 573.584C315.335 572.613 315.811 571.419 315.811 570C315.811 568.581 315.335 567.396 314.383 566.444C313.431 565.473 312.246 564.988 310.827 564.988C309.427 564.988 308.251 565.473 307.299 566.444C306.347 567.396 305.871 568.581 305.871 570C305.871 571.419 306.347 572.613 307.299 573.584C308.251 574.536 309.427 575.012 310.827 575.012ZM331.71 563H334.314L328.602 577.868C328.005 579.455 327.165 580.659 326.082 581.48C325.018 582.32 323.786 582.693 322.386 582.6V580.332C324.103 580.463 325.363 579.511 326.166 577.476L326.418 576.944L320.314 563H322.918L327.678 573.976L331.71 563ZM355.164 575.236C353.727 576.655 351.981 577.364 349.928 577.364C347.875 577.364 346.129 576.655 344.692 575.236C343.273 573.817 342.564 572.072 342.564 570C342.564 567.928 343.273 566.183 344.692 564.764C346.129 563.345 347.875 562.636 349.928 562.636C351.981 562.636 353.727 563.345 355.164 564.764C356.601 566.183 357.32 567.928 357.32 570C357.32 572.072 356.601 573.817 355.164 575.236ZM349.928 574.984C351.328 574.984 352.504 574.508 353.456 573.556C354.408 572.604 354.884 571.419 354.884 570C354.884 568.581 354.408 567.396 353.456 566.444C352.504 565.492 351.328 565.016 349.928 565.016C348.547 565.016 347.38 565.492 346.428 566.444C345.476 567.396 345 568.581 345 570C345 571.419 345.476 572.604 346.428 573.556C347.38 574.508 348.547 574.984 349.928 574.984ZM366.868 559.388C364.404 559.183 363.172 560.247 363.172 562.58V563H366.868V565.352H363.172V577H360.736V565.352H358.496V563H360.736V562.58C360.736 560.695 361.259 559.267 362.304 558.296C363.368 557.325 364.89 556.905 366.868 557.036V559.388ZM385.495 563H388.099L382.387 577.868C381.79 579.455 380.95 580.659 379.867 581.48C378.803 582.32 377.571 582.693 376.171 582.6V580.332C377.888 580.463 379.148 579.511 379.951 577.476L380.203 576.944L374.099 563H376.703L381.463 573.976L385.495 563ZM401.402 575.236C399.965 576.655 398.22 577.364 396.166 577.364C394.113 577.364 392.368 576.655 390.93 575.236C389.512 573.817 388.802 572.072 388.802 570C388.802 567.928 389.512 566.183 390.93 564.764C392.368 563.345 394.113 562.636 396.166 562.636C398.22 562.636 399.965 563.345 401.402 564.764C402.84 566.183 403.558 567.928 403.558 570C403.558 572.072 402.84 573.817 401.402 575.236ZM396.166 574.984C397.566 574.984 398.742 574.508 399.694 573.556C400.646 572.604 401.122 571.419 401.122 570C401.122 568.581 400.646 567.396 399.694 566.444C398.742 565.492 397.566 565.016 396.166 565.016C394.785 565.016 393.618 565.492 392.666 566.444C391.714 567.396 391.238 568.581 391.238 570C391.238 571.419 391.714 572.604 392.666 573.556C393.618 574.508 394.785 574.984 396.166 574.984ZM416.09 563H418.526V577H416.09V574.984C415.101 576.571 413.589 577.364 411.554 577.364C409.911 577.364 408.595 576.851 407.606 575.824C406.617 574.779 406.122 573.369 406.122 571.596V563H408.558V571.456C408.558 572.595 408.866 573.481 409.482 574.116C410.098 574.732 410.947 575.04 412.03 575.04C413.243 575.04 414.223 574.667 414.97 573.92C415.717 573.155 416.09 571.988 416.09 570.42V563ZM424.671 565.352C425.473 563.616 426.929 562.748 429.039 562.748V565.296C427.844 565.24 426.817 565.557 425.959 566.248C425.1 566.939 424.671 568.049 424.671 569.58V577H422.235V563H424.671V565.352ZM450.014 563H452.45V577H450.014V574.592C448.801 576.44 447.037 577.364 444.722 577.364C442.762 577.364 441.092 576.655 439.71 575.236C438.329 573.799 437.638 572.053 437.638 570C437.638 567.947 438.329 566.211 439.71 564.792C441.092 563.355 442.762 562.636 444.722 562.636C447.037 562.636 448.801 563.56 450.014 565.408V563ZM445.03 575.012C446.449 575.012 447.634 574.536 448.586 573.584C449.538 572.613 450.014 571.419 450.014 570C450.014 568.581 449.538 567.396 448.586 566.444C447.634 565.473 446.449 564.988 445.03 564.988C443.63 564.988 442.454 565.473 441.502 566.444C440.55 567.396 440.074 568.581 440.074 570C440.074 571.419 440.55 572.613 441.502 573.584C442.454 574.536 443.63 575.012 445.03 575.012ZM458.214 566.78C458.214 567.321 458.484 567.76 459.026 568.096C459.567 568.413 460.22 568.675 460.986 568.88C461.751 569.067 462.516 569.291 463.282 569.552C464.047 569.795 464.7 570.224 465.242 570.84C465.783 571.437 466.054 572.212 466.054 573.164C466.054 574.433 465.559 575.451 464.57 576.216C463.599 576.981 462.348 577.364 460.818 577.364C459.455 577.364 458.288 577.065 457.318 576.468C456.347 575.871 455.656 575.077 455.246 574.088L457.346 572.884C457.57 573.556 457.99 574.088 458.606 574.48C459.222 574.872 459.959 575.068 460.818 575.068C461.62 575.068 462.283 574.919 462.806 574.62C463.328 574.303 463.59 573.817 463.59 573.164C463.59 572.623 463.319 572.193 462.778 571.876C462.236 571.54 461.583 571.279 460.818 571.092C460.052 570.887 459.287 570.653 458.522 570.392C457.756 570.131 457.103 569.701 456.562 569.104C456.02 568.507 455.75 567.741 455.75 566.808C455.75 565.595 456.216 564.596 457.15 563.812C458.102 563.028 459.287 562.636 460.706 562.636C461.844 562.636 462.852 562.897 463.73 563.42C464.626 563.924 465.298 564.633 465.746 565.548L463.702 566.696C463.198 565.501 462.199 564.904 460.706 564.904C460.015 564.904 459.427 565.072 458.942 565.408C458.456 565.725 458.214 566.183 458.214 566.78ZM470.163 566.78C470.163 567.321 470.434 567.76 470.975 568.096C471.516 568.413 472.17 568.675 472.935 568.88C473.7 569.067 474.466 569.291 475.231 569.552C475.996 569.795 476.65 570.224 477.191 570.84C477.732 571.437 478.003 572.212 478.003 573.164C478.003 574.433 477.508 575.451 476.519 576.216C475.548 576.981 474.298 577.364 472.767 577.364C471.404 577.364 470.238 577.065 469.267 576.468C468.296 575.871 467.606 575.077 467.195 574.088L469.295 572.884C469.519 573.556 469.939 574.088 470.555 574.48C471.171 574.872 471.908 575.068 472.767 575.068C473.57 575.068 474.232 574.919 474.755 574.62C475.278 574.303 475.539 573.817 475.539 573.164C475.539 572.623 475.268 572.193 474.727 571.876C474.186 571.54 473.532 571.279 472.767 571.092C472.002 570.887 471.236 570.653 470.471 570.392C469.706 570.131 469.052 569.701 468.511 569.104C467.97 568.507 467.699 567.741 467.699 566.808C467.699 565.595 468.166 564.596 469.099 563.812C470.051 563.028 471.236 562.636 472.655 562.636C473.794 562.636 474.802 562.897 475.679 563.42C476.575 563.924 477.247 564.633 477.695 565.548L475.651 566.696C475.147 565.501 474.148 564.904 472.655 564.904C471.964 564.904 471.376 565.072 470.891 565.408C470.406 565.725 470.163 566.183 470.163 566.78ZM482.212 571.12C482.455 572.371 483.024 573.341 483.92 574.032C484.835 574.723 485.955 575.068 487.28 575.068C489.128 575.068 490.472 574.387 491.312 573.024L493.384 574.2C492.022 576.309 489.968 577.364 487.224 577.364C485.003 577.364 483.192 576.673 481.792 575.292C480.411 573.892 479.72 572.128 479.72 570C479.72 567.891 480.402 566.136 481.764 564.736C483.127 563.336 484.891 562.636 487.056 562.636C489.11 562.636 490.78 563.364 492.068 564.82C493.375 566.257 494.028 567.993 494.028 570.028C494.028 570.383 494 570.747 493.944 571.12H482.212ZM487.056 564.932C485.75 564.932 484.667 565.305 483.808 566.052C482.95 566.78 482.418 567.76 482.212 568.992H491.564C491.359 567.667 490.836 566.659 489.996 565.968C489.156 565.277 488.176 564.932 487.056 564.932ZM504.034 565.352H500.31V572.94C500.31 573.631 500.441 574.125 500.702 574.424C500.982 574.704 501.402 574.853 501.962 574.872C502.522 574.872 503.213 574.853 504.034 574.816V577C501.906 577.28 500.348 577.112 499.358 576.496C498.369 575.861 497.874 574.676 497.874 572.94V565.352H495.102V563H497.874V559.808L500.31 559.08V563H504.034V565.352ZM508.335 566.78C508.335 567.321 508.605 567.76 509.147 568.096C509.688 568.413 510.341 568.675 511.107 568.88C511.872 569.067 512.637 569.291 513.403 569.552C514.168 569.795 514.821 570.224 515.363 570.84C515.904 571.437 516.175 572.212 516.175 573.164C516.175 574.433 515.68 575.451 514.691 576.216C513.72 576.981 512.469 577.364 510.939 577.364C509.576 577.364 508.409 577.065 507.439 576.468C506.468 575.871 505.777 575.077 505.367 574.088L507.467 572.884C507.691 573.556 508.111 574.088 508.727 574.48C509.343 574.872 510.08 575.068 510.939 575.068C511.741 575.068 512.404 574.919 512.927 574.62C513.449 574.303 513.711 573.817 513.711 573.164C513.711 572.623 513.44 572.193 512.899 571.876C512.357 571.54 511.704 571.279 510.939 571.092C510.173 570.887 509.408 570.653 508.643 570.392C507.877 570.131 507.224 569.701 506.683 569.104C506.141 568.507 505.871 567.741 505.871 566.808C505.871 565.595 506.337 564.596 507.271 563.812C508.223 563.028 509.408 562.636 510.827 562.636C511.965 562.636 512.973 562.897 513.851 563.42C514.747 563.924 515.419 564.633 515.867 565.548L513.823 566.696C513.319 565.501 512.32 564.904 510.827 564.904C510.136 564.904 509.548 565.072 509.063 565.408C508.577 565.725 508.335 566.183 508.335 566.78ZM520.298 577.308C519.794 577.308 519.365 577.131 519.01 576.776C518.655 576.421 518.478 575.992 518.478 575.488C518.478 574.984 518.655 574.555 519.01 574.2C519.365 573.845 519.794 573.668 520.298 573.668C520.821 573.668 521.25 573.845 521.586 574.2C521.941 574.555 522.118 574.984 522.118 575.488C522.118 575.992 521.941 576.421 521.586 576.776C521.25 577.131 520.821 577.308 520.298 577.308Z" fill="#7C7C7C"/>
<path d="M545.503 557.4V561.096H540.211V577H536.347V561.096H531.083V557.4H545.503ZM555.276 562.608C556.807 562.608 558.067 563.121 559.056 564.148C560.064 565.175 560.568 566.593 560.568 568.404V577H556.956V568.852C556.956 567.919 556.704 567.209 556.2 566.724C555.696 566.22 555.024 565.968 554.184 565.968C553.251 565.968 552.504 566.257 551.944 566.836C551.384 567.415 551.104 568.283 551.104 569.44V577H547.492V557.4H551.104V564.568C551.981 563.261 553.372 562.608 555.276 562.608ZM566.704 571.484C567.189 573.239 568.505 574.116 570.652 574.116C572.033 574.116 573.079 573.649 573.788 572.716L576.7 574.396C575.319 576.393 573.284 577.392 570.596 577.392C568.281 577.392 566.424 576.692 565.024 575.292C563.624 573.892 562.924 572.128 562.924 570C562.924 567.891 563.615 566.136 564.996 564.736C566.377 563.317 568.151 562.608 570.316 562.608C572.369 562.608 574.059 563.317 575.384 564.736C576.728 566.155 577.4 567.909 577.4 570C577.4 570.467 577.353 570.961 577.26 571.484H566.704ZM566.648 568.684H573.788C573.583 567.732 573.153 567.023 572.5 566.556C571.865 566.089 571.137 565.856 570.316 565.856C569.345 565.856 568.543 566.108 567.908 566.612C567.273 567.097 566.853 567.788 566.648 568.684ZM598.85 575.264C597.412 576.683 595.658 577.392 593.586 577.392C591.514 577.392 589.759 576.683 588.322 575.264C586.903 573.827 586.194 572.072 586.194 570C586.194 567.928 586.903 566.183 588.322 564.764C589.759 563.327 591.514 562.608 593.586 562.608C595.658 562.608 597.412 563.327 598.85 564.764C600.287 566.183 601.006 567.928 601.006 570C601.006 572.072 600.287 573.827 598.85 575.264ZM590.87 572.772C591.598 573.5 592.503 573.864 593.586 573.864C594.668 573.864 595.574 573.5 596.302 572.772C597.03 572.044 597.394 571.12 597.394 570C597.394 568.88 597.03 567.956 596.302 567.228C595.574 566.5 594.668 566.136 593.586 566.136C592.503 566.136 591.598 566.5 590.87 567.228C590.16 567.956 589.806 568.88 589.806 570C589.806 571.12 590.16 572.044 590.87 572.772ZM611.331 562.608C612.861 562.608 614.121 563.121 615.111 564.148C616.119 565.175 616.623 566.593 616.623 568.404V577H613.011V568.852C613.011 567.919 612.759 567.209 612.255 566.724C611.751 566.22 611.079 565.968 610.239 565.968C609.305 565.968 608.559 566.257 607.999 566.836C607.439 567.415 607.159 568.283 607.159 569.44V577H603.547V563H607.159V564.568C608.036 563.261 609.427 562.608 611.331 562.608ZM619.707 577V556.56H623.319V577H619.707ZM635.753 563H639.617L634.521 577C633.793 579.016 632.822 580.472 631.609 581.368C630.414 582.283 628.921 582.693 627.129 582.6V579.24C628.099 579.259 628.865 579.053 629.425 578.624C630.003 578.195 630.461 577.504 630.797 576.552L625.057 563H629.005L632.645 572.408L635.753 563ZM648.336 577V556.56H651.948V577H648.336ZM657.046 561.32C656.448 561.32 655.926 561.105 655.478 560.676C655.048 560.228 654.834 559.705 654.834 559.108C654.834 558.511 655.048 557.988 655.478 557.54C655.926 557.092 656.448 556.868 657.046 556.868C657.662 556.868 658.184 557.092 658.614 557.54C659.062 557.988 659.286 558.511 659.286 559.108C659.286 559.705 659.062 560.228 658.614 560.676C658.184 561.105 657.662 561.32 657.046 561.32ZM655.254 577V563H658.866V577H655.254ZM677.656 562.608C679.261 562.608 680.54 563.131 681.492 564.176C682.462 565.221 682.948 566.621 682.948 568.376V577H679.336V568.628C679.336 567.788 679.13 567.135 678.72 566.668C678.309 566.201 677.73 565.968 676.984 565.968C676.162 565.968 675.518 566.239 675.052 566.78C674.604 567.321 674.38 568.105 674.38 569.132V577H670.768V568.628C670.768 567.788 670.562 567.135 670.152 566.668C669.741 566.201 669.162 565.968 668.416 565.968C667.613 565.968 666.969 566.239 666.484 566.78C666.017 567.321 665.784 568.105 665.784 569.132V577H662.172V563H665.784V564.484C666.624 563.233 667.921 562.608 669.676 562.608C671.393 562.608 672.662 563.28 673.484 564.624C674.417 563.28 675.808 562.608 677.656 562.608ZM687.807 561.32C687.21 561.32 686.687 561.105 686.239 560.676C685.81 560.228 685.595 559.705 685.595 559.108C685.595 558.511 685.81 557.988 686.239 557.54C686.687 557.092 687.21 556.868 687.807 556.868C688.423 556.868 688.946 557.092 689.375 557.54C689.823 557.988 690.047 558.511 690.047 559.108C690.047 559.705 689.823 560.228 689.375 560.676C688.946 561.105 688.423 561.32 687.807 561.32ZM686.015 577V563H689.627V577H686.015ZM700.941 566.472H697.777V572.296C697.777 572.781 697.899 573.136 698.141 573.36C698.384 573.584 698.739 573.715 699.205 573.752C699.672 573.771 700.251 573.761 700.941 573.724V577C698.459 577.28 696.704 577.047 695.677 576.3C694.669 575.553 694.165 574.219 694.165 572.296V566.472H691.729V563H694.165V560.172L697.777 559.08V563H700.941V566.472ZM712.499 561.32C711.901 561.32 711.379 561.105 710.931 560.676C710.501 560.228 710.287 559.705 710.287 559.108C710.287 558.511 710.501 557.988 710.931 557.54C711.379 557.092 711.901 556.868 712.499 556.868C713.115 556.868 713.637 557.092 714.067 557.54C714.515 557.988 714.739 558.511 714.739 559.108C714.739 559.705 714.515 560.228 714.067 560.676C713.637 561.105 713.115 561.32 712.499 561.32ZM710.707 577V563H714.319V577H710.707ZM720.847 566.976C720.847 567.349 721.09 567.657 721.575 567.9C722.079 568.124 722.686 568.329 723.395 568.516C724.105 568.684 724.814 568.908 725.523 569.188C726.233 569.449 726.83 569.897 727.315 570.532C727.819 571.167 728.071 571.96 728.071 572.912C728.071 574.349 727.53 575.46 726.447 576.244C725.383 577.009 724.049 577.392 722.443 577.392C719.569 577.392 717.609 576.281 716.563 574.06L719.699 572.296C720.11 573.509 721.025 574.116 722.443 574.116C723.731 574.116 724.375 573.715 724.375 572.912C724.375 572.539 724.123 572.24 723.619 572.016C723.134 571.773 722.537 571.559 721.827 571.372C721.118 571.185 720.409 570.952 719.699 570.672C718.99 570.392 718.383 569.953 717.879 569.356C717.394 568.74 717.151 567.975 717.151 567.06C717.151 565.679 717.655 564.596 718.663 563.812C719.69 563.009 720.959 562.608 722.471 562.608C723.61 562.608 724.646 562.869 725.579 563.392C726.513 563.896 727.25 564.624 727.791 565.576L724.711 567.256C724.263 566.304 723.517 565.828 722.471 565.828C722.005 565.828 721.613 565.931 721.295 566.136C720.997 566.341 720.847 566.621 720.847 566.976Z" fill="white"/>
<path d="M746.659 563H750.523L745.427 577C744.699 579.016 743.728 580.472 742.515 581.368C741.32 582.283 739.827 582.693 738.035 582.6V579.24C739.006 579.259 739.771 579.053 740.331 578.624C740.91 578.195 741.367 577.504 741.703 576.552L735.963 563H739.911L743.551 572.408L746.659 563ZM763.623 575.264C762.186 576.683 760.431 577.392 758.359 577.392C756.287 577.392 754.532 576.683 753.095 575.264C751.676 573.827 750.967 572.072 750.967 570C750.967 567.928 751.676 566.183 753.095 564.764C754.532 563.327 756.287 562.608 758.359 562.608C760.431 562.608 762.186 563.327 763.623 564.764C765.06 566.183 765.779 567.928 765.779 570C765.779 572.072 765.06 573.827 763.623 575.264ZM755.643 572.772C756.371 573.5 757.276 573.864 758.359 573.864C759.442 573.864 760.347 573.5 761.075 572.772C761.803 572.044 762.167 571.12 762.167 570C762.167 568.88 761.803 567.956 761.075 567.228C760.347 566.5 759.442 566.136 758.359 566.136C757.276 566.136 756.371 566.5 755.643 567.228C754.934 567.956 754.579 568.88 754.579 570C754.579 571.12 754.934 572.044 755.643 572.772ZM777.56 563H781.172V577H777.56V575.432C776.683 576.739 775.292 577.392 773.388 577.392C771.857 577.392 770.588 576.879 769.58 575.852C768.591 574.825 768.096 573.407 768.096 571.596V563H771.708V571.148C771.708 572.081 771.96 572.8 772.464 573.304C772.968 573.789 773.64 574.032 774.48 574.032C775.413 574.032 776.16 573.743 776.72 573.164C777.28 572.585 777.56 571.717 777.56 570.56V563ZM788.26 576.664C787.793 577.131 787.233 577.364 786.58 577.364C785.927 577.364 785.367 577.131 784.9 576.664C784.433 576.197 784.2 575.637 784.2 574.984C784.2 574.331 784.433 573.771 784.9 573.304C785.367 572.837 785.927 572.604 786.58 572.604C787.233 572.604 787.793 572.837 788.26 573.304C788.727 573.771 788.96 574.331 788.96 574.984C788.96 575.637 788.727 576.197 788.26 576.664Z" fill="#44FF40"/>
<path d="M1212.71 760.754L1181.71 764.448L1188.03 879.828C1188.11 881.311 1189.43 882.418 1190.9 882.242L1999.24 785.94C2000.64 785.774 2001.64 784.524 2001.5 783.128L1960.86 378.564L1931.88 425.668C1930.78 427.456 1928.12 427.246 1927.32 425.308L1905.32 372.415C1904.88 371.351 1903.78 370.711 1902.64 370.848L1858.51 376.105C1857.83 376.186 1857.2 376.536 1856.78 377.077L1830.17 411.169C1829.51 412.018 1828.39 412.364 1827.36 412.037L1790.03 400.14C1788.55 399.668 1786.99 400.607 1786.71 402.137L1769.95 495.523C1769.58 497.559 1767.09 498.353 1765.61 496.903L1732.02 463.892C1730.69 462.586 1728.46 463.082 1727.81 464.828L1724.53 473.634C1723.97 475.112 1722.23 475.75 1720.86 474.979L1704.42 465.767C1703.08 465.017 1701.39 465.596 1700.79 467.006L1683.03 508.881C1682.58 509.936 1681.49 510.568 1680.35 510.431L1654.08 507.276C1652.72 507.112 1651.47 508.048 1651.24 509.401L1634.14 610.439C1634.01 611.214 1633.53 611.886 1632.84 612.264L1593.42 633.949C1592.29 634.575 1590.86 634.256 1590.1 633.206L1555.12 584.978C1553.91 583.316 1551.34 583.666 1550.63 585.589L1541.22 610.819C1540.99 611.426 1540.54 611.925 1539.96 612.217L1513.49 625.591C1512.79 625.941 1512.29 626.586 1512.13 627.346L1501.34 677.45C1501.16 678.283 1500.58 678.973 1499.79 679.293L1463.47 694.015C1462.94 694.229 1462.5 694.611 1462.21 695.103L1441.26 730.996C1440.44 732.401 1438.54 732.702 1437.33 731.618L1416.01 712.58C1415.05 711.726 1413.61 711.706 1412.63 712.534L1358.54 758.251C1357.73 758.932 1356.59 759.052 1355.66 758.553L1334.64 747.289C1333.67 746.77 1332.48 746.924 1331.67 747.671L1315.51 762.664C1315.11 763.035 1314.6 763.269 1314.06 763.333L1276.27 767.836C1275.59 767.917 1274.91 767.724 1274.37 767.302L1233.07 734.755C1231.86 733.8 1230.08 734.12 1229.28 735.438L1214.61 759.537C1214.2 760.212 1213.5 760.661 1212.71 760.754Z" fill="url(#paint0_linear_203_12)"/>
<path d="M1186.55 763.871L1211.47 760.902C1213.04 760.715 1214.44 759.818 1215.26 758.468L1227.77 737.918C1229.37 735.281 1232.92 734.641 1235.35 736.552L1273.53 766.642C1274.61 767.487 1275.97 767.871 1277.33 767.71L1313.23 763.432C1314.31 763.303 1315.32 762.835 1316.12 762.095L1329.58 749.608C1331.53 747.802 1334.53 747.773 1336.51 749.542L1354.66 765.75C1356.72 767.591 1359.87 767.475 1361.79 765.487L1410.9 714.65C1412.82 712.662 1415.97 712.546 1418.03 714.387L1434.98 729.521C1437.4 731.688 1441.21 731.087 1442.85 728.277L1461.77 695.861C1462.34 694.878 1463.23 694.113 1464.28 693.686L1498.53 679.804C1500.11 679.164 1501.27 677.784 1501.62 676.119L1511.87 628.547C1512.2 627.028 1513.2 625.738 1514.58 625.037L1539.07 612.671C1540.22 612.087 1541.11 611.089 1541.57 609.876L1548.95 590.084C1550.39 586.237 1555.53 585.537 1557.94 588.861L1588.77 631.367C1590.29 633.468 1593.14 634.106 1595.41 632.855L1631.75 612.864C1633.13 612.106 1634.08 610.762 1634.34 609.214L1650.83 511.819C1651.29 509.112 1653.79 507.241 1656.51 507.568L1678.43 510.2C1680.71 510.474 1682.89 509.21 1683.78 507.101L1699.67 469.65C1700.87 466.828 1704.25 465.672 1706.92 467.17L1718.24 473.511C1720.99 475.054 1724.47 473.778 1725.57 470.82L1726.42 468.544C1727.73 465.051 1732.19 464.059 1734.85 466.672L1762.14 493.488C1765.08 496.387 1770.08 494.798 1770.81 490.727L1786.19 405.025C1786.74 401.965 1789.86 400.087 1792.82 401.031L1825.66 411.493C1827.71 412.147 1829.95 411.454 1831.27 409.757L1856.12 377.922C1856.97 376.84 1858.21 376.141 1859.57 375.978L1900.7 371.078C1902.99 370.805 1905.18 372.085 1906.06 374.212L1925.04 419.847C1926.72 423.869 1932.32 424.123 1934.35 420.27L1956.02 379.141" stroke="#44FF40" stroke-width="5.14602" stroke-linecap="round"/>
<path d="M1234.46 368.855C1232.06 378.498 1222.29 384.366 1212.64 381.961C1203 379.557 1197.14 369.79 1199.54 360.148C1201.94 350.504 1211.71 344.635 1221.35 347.039C1231 349.443 1236.86 359.211 1234.46 368.855H1234.46Z" fill="url(#paint1_linear_203_12)" stroke="#F99E30" stroke-width="3"/>
<path fill-rule="evenodd" clip-rule="evenodd" d="M1222.42 362.409C1222.66 360.784 1221.43 359.911 1219.74 359.328L1220.28 357.127L1218.94 356.793L1218.41 358.936C1218.06 358.848 1217.7 358.765 1217.34 358.683L1217.87 356.526L1216.54 356.192L1215.99 358.393C1215.7 358.326 1215.41 358.261 1215.13 358.192L1215.13 358.185L1213.28 357.723L1212.93 359.154C1212.93 359.154 1213.92 359.382 1213.9 359.396C1214.44 359.532 1214.54 359.891 1214.53 360.175L1213.9 362.683C1213.94 362.692 1213.99 362.706 1214.04 362.728L1213.9 362.692L1213.02 366.205C1212.96 366.37 1212.79 366.617 1212.41 366.523C1212.42 366.543 1211.43 366.28 1211.43 366.28L1210.77 367.814L1212.51 368.249C1212.71 368.298 1212.9 368.349 1213.1 368.399L1213.1 368.399C1213.22 368.432 1213.35 368.464 1213.47 368.495L1212.91 370.722L1214.25 371.056L1214.8 368.853C1215.17 368.952 1215.52 369.044 1215.87 369.13L1215.32 371.323L1216.66 371.656L1217.22 369.434C1219.5 369.867 1221.22 369.692 1221.94 367.626C1222.52 365.963 1221.91 365.003 1220.71 364.377C1221.59 364.174 1222.25 363.598 1222.42 362.409H1222.42ZM1215.5 367.308L1215.5 367.308L1215.5 367.308C1215.4 367.282 1215.31 367.259 1215.24 367.24L1215.97 364.291C1216.06 364.314 1216.17 364.339 1216.3 364.367C1217.43 364.621 1219.75 365.141 1219.36 366.701H1219.36C1218.98 368.228 1216.59 367.597 1215.5 367.308ZM1216.53 362.998C1217.44 363.242 1219.43 363.772 1219.77 362.385C1220.13 360.966 1218.19 360.538 1217.25 360.329C1217.14 360.306 1217.05 360.285 1216.97 360.266L1216.31 362.941C1216.37 362.956 1216.44 362.976 1216.53 362.998Z" fill="white"/>
<path d="M1268.57 363.932C1270.78 365.204 1271.88 367.124 1271.88 369.692C1271.88 371.828 1271.12 373.58 1269.61 374.948C1268.1 376.316 1266.24 377 1264.03 377H1253.34V351.8H1263.28C1265.44 351.8 1267.25 352.472 1268.71 353.816C1270.2 355.136 1270.94 356.828 1270.94 358.892C1270.94 360.98 1270.15 362.66 1268.57 363.932ZM1263.28 356.444H1258.31V361.988H1263.28C1264.04 361.988 1264.68 361.724 1265.18 361.196C1265.71 360.668 1265.98 360.008 1265.98 359.216C1265.98 358.424 1265.72 357.764 1265.22 357.236C1264.72 356.708 1264.07 356.444 1263.28 356.444ZM1264.03 372.356C1264.87 372.356 1265.57 372.08 1266.12 371.528C1266.67 370.952 1266.95 370.232 1266.95 369.368C1266.95 368.528 1266.67 367.832 1266.12 367.28C1265.57 366.704 1264.87 366.416 1264.03 366.416H1258.31V372.356H1264.03ZM1277.22 356.84C1276.46 356.84 1275.78 356.564 1275.21 356.012C1274.66 355.436 1274.38 354.764 1274.38 353.996C1274.38 353.228 1274.66 352.556 1275.21 351.98C1275.78 351.404 1276.46 351.116 1277.22 351.116C1278.02 351.116 1278.69 351.404 1279.24 351.98C1279.82 352.556 1280.1 353.228 1280.1 353.996C1280.1 354.764 1279.82 355.436 1279.24 356.012C1278.69 356.564 1278.02 356.84 1277.22 356.84ZM1274.92 377V359H1279.56V377H1274.92ZM1294.11 363.464H1290.04V370.952C1290.04 371.576 1290.2 372.032 1290.51 372.32C1290.82 372.608 1291.28 372.776 1291.88 372.824C1292.48 372.848 1293.22 372.836 1294.11 372.788V377C1290.92 377.36 1288.66 377.06 1287.34 376.1C1286.05 375.14 1285.4 373.424 1285.4 370.952V363.464H1282.27V359H1285.4V355.364L1290.04 353.96V359H1294.11V363.464ZM1305.39 377.504C1302.68 377.504 1300.41 376.592 1298.59 374.768C1296.79 372.944 1295.89 370.688 1295.89 368C1295.89 365.312 1296.79 363.056 1298.59 361.232C1300.41 359.408 1302.68 358.496 1305.39 358.496C1307.14 358.496 1308.74 358.916 1310.18 359.756C1311.62 360.596 1312.71 361.724 1313.46 363.14L1309.46 365.48C1309.1 364.736 1308.55 364.148 1307.8 363.716C1307.08 363.284 1306.27 363.068 1305.36 363.068C1303.96 363.068 1302.81 363.536 1301.9 364.472C1300.99 365.384 1300.53 366.56 1300.53 368C1300.53 369.416 1300.99 370.592 1301.9 371.528C1302.81 372.44 1303.96 372.896 1305.36 372.896C1306.29 372.896 1307.12 372.692 1307.84 372.284C1308.58 371.852 1309.14 371.264 1309.5 370.52L1313.53 372.824C1312.74 374.24 1311.62 375.38 1310.18 376.244C1308.74 377.084 1307.14 377.504 1305.39 377.504ZM1331.04 374.768C1329.19 376.592 1326.93 377.504 1324.27 377.504C1321.61 377.504 1319.35 376.592 1317.5 374.768C1315.68 372.92 1314.77 370.664 1314.77 368C1314.77 365.336 1315.68 363.092 1317.5 361.268C1319.35 359.42 1321.61 358.496 1324.27 358.496C1326.93 358.496 1329.19 359.42 1331.04 361.268C1332.89 363.092 1333.81 365.336 1333.81 368C1333.81 370.664 1332.89 372.92 1331.04 374.768ZM1320.78 371.564C1321.71 372.5 1322.88 372.968 1324.27 372.968C1325.66 372.968 1326.83 372.5 1327.76 371.564C1328.7 370.628 1329.17 369.44 1329.17 368C1329.17 366.56 1328.7 365.372 1327.76 364.436C1326.83 363.5 1325.66 363.032 1324.27 363.032C1322.88 363.032 1321.71 363.5 1320.78 364.436C1319.87 365.372 1319.41 366.56 1319.41 368C1319.41 369.44 1319.87 370.628 1320.78 371.564ZM1339.38 356.84C1338.61 356.84 1337.94 356.564 1337.37 356.012C1336.81 355.436 1336.54 354.764 1336.54 353.996C1336.54 353.228 1336.81 352.556 1337.37 351.98C1337.94 351.404 1338.61 351.116 1339.38 351.116C1340.17 351.116 1340.85 351.404 1341.4 351.98C1341.97 352.556 1342.26 353.228 1342.26 353.996C1342.26 354.764 1341.97 355.436 1341.4 356.012C1340.85 356.564 1340.17 356.84 1339.38 356.84ZM1337.08 377V359H1341.72V377H1337.08ZM1355.98 358.496C1357.95 358.496 1359.57 359.156 1360.84 360.476C1362.14 361.796 1362.78 363.62 1362.78 365.948V377H1358.14V366.524C1358.14 365.324 1357.82 364.412 1357.17 363.788C1356.52 363.14 1355.66 362.816 1354.58 362.816C1353.38 362.816 1352.42 363.188 1351.7 363.932C1350.98 364.676 1350.62 365.792 1350.62 367.28V377H1345.97V359H1350.62V361.016C1351.74 359.336 1353.53 358.496 1355.98 358.496Z" fill="white"/>
<path d="M1392.71 369.288C1394.18 370.136 1394.92 371.416 1394.92 373.128C1394.92 374.552 1394.42 375.72 1393.41 376.632C1392.4 377.544 1391.16 378 1389.69 378H1382.56V361.2H1389.18C1390.62 361.2 1391.83 361.648 1392.81 362.544C1393.8 363.424 1394.3 364.552 1394.3 365.928C1394.3 367.32 1393.77 368.44 1392.71 369.288ZM1389.18 364.296H1385.87V367.992H1389.18C1389.7 367.992 1390.12 367.816 1390.46 367.464C1390.81 367.112 1390.98 366.672 1390.98 366.144C1390.98 365.616 1390.82 365.176 1390.48 364.824C1390.14 364.472 1389.71 364.296 1389.18 364.296ZM1389.69 374.904C1390.25 374.904 1390.71 374.72 1391.08 374.352C1391.45 373.968 1391.63 373.488 1391.63 372.912C1391.63 372.352 1391.45 371.888 1391.08 371.52C1390.71 371.136 1390.25 370.944 1389.69 370.944H1385.87V374.904H1389.69ZM1407.73 361.2V364.368H1403.2V378H1399.89V364.368H1395.37V361.2H1407.73ZM1416.59 378.336C1414.06 378.336 1411.97 377.496 1410.33 375.816C1408.68 374.136 1407.85 372.064 1407.85 369.6C1407.85 367.12 1408.68 365.048 1410.33 363.384C1411.97 361.704 1414.06 360.864 1416.59 360.864C1418.11 360.864 1419.51 361.224 1420.79 361.944C1422.09 362.648 1423.09 363.608 1423.81 364.824L1420.96 366.48C1420.54 365.728 1419.95 365.144 1419.18 364.728C1418.41 364.296 1417.55 364.08 1416.59 364.08C1414.96 364.08 1413.64 364.592 1412.63 365.616C1411.64 366.64 1411.14 367.968 1411.14 369.6C1411.14 371.216 1411.64 372.536 1412.63 373.56C1413.64 374.584 1414.96 375.096 1416.59 375.096C1417.55 375.096 1418.41 374.888 1419.18 374.472C1419.97 374.04 1420.56 373.456 1420.96 372.72L1423.81 374.376C1423.09 375.592 1422.09 376.56 1420.81 377.28C1419.53 377.984 1418.13 378.336 1416.59 378.336Z" fill="#636363"/>
<path d="M1215.48 421.016C1215.48 422.765 1214.9 424.205 1213.75 425.336C1212.6 426.467 1211.11 427.139 1209.27 427.352V430.2H1207.26V427.384C1205.51 427.256 1204.01 426.776 1202.78 425.944C1201.56 425.112 1200.67 423.992 1200.12 422.584L1202.68 421.112C1203.41 423.096 1204.93 424.216 1207.26 424.472V416.728C1206.3 416.387 1205.52 416.077 1204.92 415.8C1204.34 415.501 1203.74 415.107 1203.1 414.616C1202.46 414.125 1201.98 413.528 1201.66 412.824C1201.36 412.099 1201.21 411.267 1201.21 410.328C1201.21 408.6 1201.78 407.192 1202.94 406.104C1204.09 405.016 1205.53 404.387 1207.26 404.216V401.4H1209.27V404.248C1210.55 404.419 1211.69 404.867 1212.7 405.592C1213.7 406.317 1214.48 407.299 1215.03 408.536L1212.54 409.944C1211.92 408.387 1210.83 407.459 1209.27 407.16V414.52C1210.25 414.883 1211.03 415.203 1211.61 415.48C1212.18 415.757 1212.81 416.152 1213.5 416.664C1214.18 417.155 1214.68 417.763 1215 418.488C1215.32 419.213 1215.48 420.056 1215.48 421.016ZM1204.15 410.328C1204.15 411.139 1204.4 411.8 1204.89 412.312C1205.38 412.824 1206.17 413.304 1207.26 413.752V407.128C1206.32 407.256 1205.56 407.608 1204.98 408.184C1204.43 408.739 1204.15 409.453 1204.15 410.328ZM1209.27 424.408C1210.3 424.259 1211.09 423.885 1211.64 423.288C1212.22 422.669 1212.5 421.923 1212.5 421.048C1212.5 420.173 1212.24 419.48 1211.7 418.968C1211.19 418.435 1210.38 417.933 1209.27 417.464V424.408ZM1233.2 412.344C1235.44 412.344 1237.29 413.048 1238.74 414.456C1240.19 415.843 1240.91 417.645 1240.91 419.864C1240.91 422.083 1240.19 423.896 1238.74 425.304C1237.29 426.712 1235.44 427.416 1233.2 427.416C1230.94 427.416 1229.08 426.712 1227.63 425.304C1226.2 423.896 1225.49 422.083 1225.49 419.864C1225.49 418.136 1225.94 416.643 1226.83 415.384L1234.03 404.6H1237.43L1232.15 412.408C1232.62 412.365 1232.97 412.344 1233.2 412.344ZM1229.75 423.288C1230.64 424.141 1231.79 424.568 1233.2 424.568C1234.61 424.568 1235.75 424.141 1236.63 423.288C1237.52 422.413 1237.97 421.272 1237.97 419.864C1237.97 418.456 1237.52 417.325 1236.63 416.472C1235.75 415.619 1234.61 415.192 1233.2 415.192C1231.77 415.192 1230.62 415.619 1229.75 416.472C1228.87 417.325 1228.43 418.456 1228.43 419.864C1228.43 421.272 1228.87 422.413 1229.75 423.288ZM1250.42 412.344C1252.66 412.344 1254.51 413.048 1255.96 414.456C1257.41 415.843 1258.13 417.645 1258.13 419.864C1258.13 422.083 1257.41 423.896 1255.96 425.304C1254.51 426.712 1252.66 427.416 1250.42 427.416C1248.16 427.416 1246.3 426.712 1244.85 425.304C1243.42 423.896 1242.71 422.083 1242.71 419.864C1242.71 418.136 1243.16 416.643 1244.05 415.384L1251.25 404.6H1254.64L1249.36 412.408C1249.83 412.365 1250.19 412.344 1250.42 412.344ZM1246.96 423.288C1247.86 424.141 1249.01 424.568 1250.42 424.568C1251.83 424.568 1252.97 424.141 1253.84 423.288C1254.74 422.413 1255.19 421.272 1255.19 419.864C1255.19 418.456 1254.74 417.325 1253.84 416.472C1252.97 415.619 1251.83 415.192 1250.42 415.192C1248.99 415.192 1247.84 415.619 1246.96 416.472C1246.09 417.325 1245.65 418.456 1245.65 419.864C1245.65 421.272 1246.09 422.413 1246.96 423.288ZM1264.68 423.704L1262.6 431.48H1260.2L1261.48 423.704H1264.68ZM1275.11 412.344C1277.35 412.344 1279.19 413.048 1280.64 414.456C1282.09 415.843 1282.82 417.645 1282.82 419.864C1282.82 422.083 1282.09 423.896 1280.64 425.304C1279.19 426.712 1277.35 427.416 1275.11 427.416C1272.85 427.416 1270.99 426.712 1269.54 425.304C1268.11 423.896 1267.4 422.083 1267.4 419.864C1267.4 418.136 1267.84 416.643 1268.74 415.384L1275.94 404.6H1279.33L1274.05 412.408C1274.52 412.365 1274.87 412.344 1275.11 412.344ZM1271.65 423.288C1272.55 424.141 1273.7 424.568 1275.11 424.568C1276.52 424.568 1277.66 424.141 1278.53 423.288C1279.43 422.413 1279.88 421.272 1279.88 419.864C1279.88 418.456 1279.43 417.325 1278.53 416.472C1277.66 415.619 1276.52 415.192 1275.11 415.192C1273.68 415.192 1272.53 415.619 1271.65 416.472C1270.78 417.325 1270.34 418.456 1270.34 419.864C1270.34 421.272 1270.78 422.413 1271.65 423.288ZM1283.93 427V424.568L1291.84 416.504C1293.95 414.392 1295.01 412.579 1295.01 411.064C1295.01 409.805 1294.62 408.824 1293.85 408.12C1293.09 407.416 1292.15 407.064 1291.04 407.064C1288.93 407.064 1287.39 408.067 1286.43 410.072L1283.93 408.6C1284.64 407.149 1285.61 406.051 1286.85 405.304C1288.1 404.557 1289.49 404.184 1291.01 404.184C1292.88 404.184 1294.51 404.803 1295.9 406.04C1297.29 407.277 1297.98 408.941 1297.98 411.032C1297.98 413.293 1296.65 415.757 1293.98 418.424L1288.25 424.12H1298.4V427H1283.93ZM1309.46 413.784C1311.16 414.104 1312.56 414.84 1313.65 415.992C1314.74 417.144 1315.28 418.605 1315.28 420.376C1315.28 422.552 1314.53 424.269 1313.04 425.528C1311.55 426.787 1309.73 427.416 1307.6 427.416C1305.89 427.416 1304.38 427.032 1303.06 426.264C1301.73 425.475 1300.79 424.344 1300.24 422.872L1302.74 421.4C1303.4 423.469 1305.02 424.504 1307.6 424.504C1308.99 424.504 1310.12 424.141 1310.99 423.416C1311.87 422.691 1312.3 421.677 1312.3 420.376C1312.3 419.075 1311.87 418.061 1310.99 417.336C1310.12 416.589 1308.99 416.216 1307.6 416.216H1306.83L1305.65 414.392L1310.83 407.384H1300.88V404.6H1314.32V407.224L1309.46 413.784ZM1319.72 427.352C1319.14 427.352 1318.65 427.149 1318.24 426.744C1317.84 426.339 1317.64 425.848 1317.64 425.272C1317.64 424.696 1317.84 424.205 1318.24 423.8C1318.65 423.395 1319.14 423.192 1319.72 423.192C1320.31 423.192 1320.8 423.395 1321.19 423.8C1321.59 424.205 1321.8 424.696 1321.8 425.272C1321.8 425.848 1321.59 426.339 1321.19 426.744C1320.8 427.149 1320.31 427.352 1319.72 427.352ZM1332.27 413.336C1334.38 413.336 1336.16 413.965 1337.61 415.224C1339.08 416.461 1339.82 418.179 1339.82 420.376C1339.82 422.552 1339.07 424.269 1337.58 425.528C1336.08 426.787 1334.27 427.416 1332.14 427.416C1330.43 427.416 1328.91 427.011 1327.56 426.2C1326.22 425.368 1325.28 424.173 1324.75 422.616L1327.27 421.176C1327.57 422.264 1328.15 423.096 1329 423.672C1329.85 424.227 1330.9 424.504 1332.14 424.504C1333.55 424.504 1334.69 424.141 1335.56 423.416C1336.44 422.691 1336.87 421.677 1336.87 420.376C1336.87 419.075 1336.44 418.061 1335.56 417.336C1334.69 416.589 1333.57 416.216 1332.2 416.216H1325.87L1326.7 404.6H1338.95V407.384H1329.39L1329 413.336H1332.27ZM1356.89 424.248C1355.37 426.36 1353.25 427.416 1350.52 427.416C1347.79 427.416 1345.66 426.36 1344.15 424.248C1342.63 422.136 1341.88 419.32 1341.88 415.8C1341.88 412.28 1342.63 409.464 1344.15 407.352C1345.66 405.24 1347.79 404.184 1350.52 404.184C1353.25 404.184 1355.37 405.24 1356.89 407.352C1358.4 409.464 1359.16 412.28 1359.16 415.8C1359.16 419.32 1358.4 422.136 1356.89 424.248ZM1346.33 422.232C1347.31 423.747 1348.7 424.504 1350.52 424.504C1352.33 424.504 1353.73 423.747 1354.71 422.232C1355.71 420.717 1356.21 418.573 1356.21 415.8C1356.21 413.027 1355.71 410.883 1354.71 409.368C1353.73 407.832 1352.33 407.064 1350.52 407.064C1348.7 407.064 1347.31 407.821 1346.33 409.336C1345.34 410.851 1344.85 413.005 1344.85 415.8C1344.85 418.573 1345.34 420.717 1346.33 422.232Z" fill="white"/>
<path d="M1392.49 422.84L1383.51 412.427C1383.25 412.129 1382.75 412.129 1382.49 412.427L1373.51 422.84C1373.18 423.228 1373.48 423.797 1374.02 423.797L1391.98 423.797C1392.52 423.797 1392.82 423.228 1392.49 422.84Z" fill="#44FF40"/>
<path d="M107.896 929.2C109.448 929.2 110.736 929.72 111.76 930.76C112.8 931.784 113.32 933.064 113.32 934.6C113.32 936.12 112.8 937.4 111.76 938.44C110.736 939.48 109.448 940 107.896 940H104.032V946H101.8V929.2H107.896ZM107.896 937.912C108.824 937.912 109.592 937.6 110.2 936.976C110.808 936.336 111.112 935.544 111.112 934.6C111.112 933.64 110.808 932.848 110.2 932.224C109.592 931.6 108.824 931.288 107.896 931.288H104.032V937.912H107.896ZM124.954 944.488C123.722 945.704 122.226 946.312 120.466 946.312C118.706 946.312 117.21 945.704 115.978 944.488C114.762 943.272 114.154 941.776 114.154 940C114.154 938.224 114.762 936.728 115.978 935.512C117.21 934.296 118.706 933.688 120.466 933.688C122.226 933.688 123.722 934.296 124.954 935.512C126.186 936.728 126.802 938.224 126.802 940C126.802 941.776 126.186 943.272 124.954 944.488ZM120.466 944.272C121.666 944.272 122.674 943.864 123.49 943.048C124.306 942.232 124.714 941.216 124.714 940C124.714 938.784 124.306 937.768 123.49 936.952C122.674 936.136 121.666 935.728 120.466 935.728C119.282 935.728 118.282 936.136 117.466 936.952C116.65 937.768 116.242 938.784 116.242 940C116.242 941.216 116.65 942.232 117.466 943.048C118.282 943.864 119.282 944.272 120.466 944.272ZM142.931 934H145.115L141.395 946H139.259L136.451 937.12L133.643 946H131.507L127.787 934H129.971L132.611 943.12L135.443 934H137.459L140.291 943.144L142.931 934ZM148.259 940.96C148.467 942.032 148.955 942.864 149.723 943.456C150.507 944.048 151.467 944.344 152.603 944.344C154.187 944.344 155.339 943.76 156.059 942.592L157.835 943.6C156.667 945.408 154.907 946.312 152.555 946.312C150.651 946.312 149.099 945.72 147.899 944.536C146.715 943.336 146.123 941.824 146.123 940C146.123 938.192 146.707 936.688 147.875 935.488C149.043 934.288 150.555 933.688 152.411 933.688C154.171 933.688 155.603 934.312 156.707 935.56C157.827 936.792 158.387 938.28 158.387 940.024C158.387 940.328 158.363 940.64 158.315 940.96H148.259ZM152.411 935.656C151.291 935.656 150.363 935.976 149.627 936.616C148.891 937.24 148.435 938.08 148.259 939.136H156.275C156.099 938 155.651 937.136 154.931 936.544C154.211 935.952 153.371 935.656 152.411 935.656ZM162.875 936.016C163.563 934.528 164.811 933.784 166.619 933.784V935.968C165.595 935.92 164.715 936.192 163.979 936.784C163.243 937.376 162.875 938.328 162.875 939.64V946H160.787V934H162.875V936.016ZM169.47 940.96C169.678 942.032 170.166 942.864 170.934 943.456C171.718 944.048 172.678 944.344 173.814 944.344C175.398 944.344 176.55 943.76 177.27 942.592L179.046 943.6C177.878 945.408 176.118 946.312 173.766 946.312C171.862 946.312 170.31 945.72 169.11 944.536C167.926 943.336 167.334 941.824 167.334 940C167.334 938.192 167.918 936.688 169.086 935.488C170.254 934.288 171.766 933.688 173.622 933.688C175.382 933.688 176.814 934.312 177.918 935.56C179.038 936.792 179.598 938.28 179.598 940.024C179.598 940.328 179.574 940.64 179.526 940.96H169.47ZM173.622 935.656C172.502 935.656 171.574 935.976 170.838 936.616C170.102 937.24 169.646 938.08 169.47 939.136H177.486C177.31 938 176.862 937.136 176.142 936.544C175.422 935.952 174.582 935.656 173.622 935.656ZM191.911 929.2H193.999V946H191.911V943.936C190.871 945.52 189.359 946.312 187.375 946.312C185.695 946.312 184.263 945.704 183.079 944.488C181.895 943.256 181.303 941.76 181.303 940C181.303 938.24 181.895 936.752 183.079 935.536C184.263 934.304 185.695 933.688 187.375 933.688C189.359 933.688 190.871 934.48 191.911 936.064V929.2ZM187.639 944.296C188.855 944.296 189.871 943.888 190.687 943.072C191.503 942.24 191.911 941.216 191.911 940C191.911 938.784 191.503 937.768 190.687 936.952C189.871 936.12 188.855 935.704 187.639 935.704C186.439 935.704 185.431 936.12 184.615 936.952C183.799 937.768 183.391 938.784 183.391 940C183.391 941.216 183.799 942.24 184.615 943.072C185.431 943.888 186.439 944.296 187.639 944.296ZM209.786 933.688C211.466 933.688 212.898 934.304 214.082 935.536C215.266 936.752 215.858 938.24 215.858 940C215.858 941.76 215.266 943.256 214.082 944.488C212.898 945.704 211.466 946.312 209.786 946.312C207.802 946.312 206.29 945.52 205.25 943.936V946H203.162V929.2H205.25V936.064C206.29 934.48 207.802 933.688 209.786 933.688ZM209.522 944.296C210.722 944.296 211.73 943.888 212.546 943.072C213.362 942.24 213.77 941.216 213.77 940C213.77 938.784 213.362 937.768 212.546 936.952C211.73 936.12 210.722 935.704 209.522 935.704C208.306 935.704 207.29 936.12 206.474 936.952C205.658 937.768 205.25 938.784 205.25 940C205.25 941.216 205.658 942.24 206.474 943.072C207.29 943.888 208.306 944.296 209.522 944.296ZM226.257 934H228.489L223.593 946.744C223.081 948.104 222.361 949.136 221.433 949.84C220.521 950.56 219.465 950.88 218.265 950.8V948.856C219.737 948.968 220.817 948.152 221.505 946.408L221.721 945.952L216.489 934H218.721L222.801 943.408L226.257 934Z" fill="#7C7C7C"/>
<g clip-path="url(#clip1_203_12)">
<path fill-rule="evenodd" clip-rule="evenodd" d="M288.559 938.937L276.6 926.99V935.739L264.725 944.499L276.6 944.508V950.884L288.559 938.937Z" fill="#4E529A"/>
<path fill-rule="evenodd" clip-rule="evenodd" d="M246.4 938.932L258.36 950.879V942.223L270.147 933.457L258.36 933.449V926.986L246.4 938.932Z" fill="#8C8DFC"/>
<path d="M306.97 945.972H297.794V943.337L303.047 937.481H297.929V934.891H306.88V937.391L301.469 943.359H306.97V945.972Z" fill="white" fill-opacity="0.9"/>
<path d="M319.492 934.891L315.051 939.553L319.583 945.972H315.908L312.977 941.738L311.737 943.044V945.972H308.738V929.666H311.737V939.013L315.57 934.891H319.492Z" fill="white" fill-opacity="0.9"/>
<path d="M332.534 933.81L329.739 934.666C329.633 934.095 329.348 933.578 328.882 933.112C328.416 932.647 327.732 932.414 326.83 932.414C326.094 932.414 325.493 932.617 325.026 933.022C324.561 933.412 324.328 933.885 324.328 934.441C324.328 935.417 324.907 936.017 326.064 936.243L328.296 936.671C329.708 936.941 330.805 937.504 331.587 938.36C332.369 939.215 332.76 940.221 332.76 941.378C332.76 942.699 332.234 943.855 331.182 944.846C330.144 945.822 328.746 946.31 326.988 946.31C325.981 946.31 325.072 946.16 324.26 945.859C323.448 945.559 322.795 945.161 322.299 944.666C321.803 944.155 321.412 943.622 321.126 943.067C320.856 942.496 320.69 941.911 320.63 941.31L323.516 940.544C323.591 941.4 323.922 942.113 324.508 942.684C325.109 943.254 325.944 943.54 327.011 943.54C327.822 943.54 328.454 943.359 328.905 942.999C329.37 942.639 329.603 942.166 329.603 941.58C329.603 941.115 329.43 940.717 329.084 940.387C328.754 940.041 328.281 939.809 327.665 939.688L325.432 939.238C324.139 938.968 323.118 938.435 322.366 937.639C321.615 936.843 321.239 935.852 321.239 934.666C321.239 933.255 321.78 932.069 322.862 931.108C323.96 930.147 325.275 929.666 326.807 929.666C327.725 929.666 328.544 929.794 329.265 930.049C329.986 930.304 330.566 930.65 331.001 931.085C331.437 931.506 331.775 931.941 332.016 932.391C332.256 932.842 332.429 933.315 332.534 933.81Z" fill="white" fill-opacity="0.9"/>
<path d="M337.811 950.341H334.632L337.247 944.576L332.535 934.891H335.895L338.848 941.377L341.576 934.891H344.778L337.811 950.341Z" fill="white" fill-opacity="0.9"/>
<path d="M348.916 939.598V945.972H345.917V934.891H348.826V936.265C349.141 935.725 349.592 935.312 350.179 935.026C350.765 934.741 351.381 934.599 352.027 934.599C353.335 934.599 354.327 935.011 355.004 935.837C355.695 936.648 356.041 937.699 356.041 938.99V945.972H353.042V939.508C353.042 938.848 352.869 938.315 352.524 937.909C352.193 937.504 351.682 937.301 350.99 937.301C350.359 937.301 349.856 937.519 349.48 937.954C349.104 938.39 348.916 938.938 348.916 939.598Z" fill="white" fill-opacity="0.9"/>
<path d="M363.39 937.324C362.593 937.324 361.924 937.601 361.384 938.157C360.843 938.712 360.572 939.471 360.572 940.432C360.572 941.393 360.843 942.158 361.384 942.729C361.94 943.284 362.616 943.562 363.413 943.562C364.119 943.562 364.683 943.382 365.104 943.022C365.525 942.646 365.81 942.203 365.961 941.693L368.598 942.571C368.328 943.592 367.742 944.47 366.84 945.206C365.938 945.942 364.796 946.31 363.413 946.31C361.759 946.31 360.369 945.754 359.242 944.643C358.13 943.517 357.574 942.113 357.574 940.432C357.574 938.735 358.122 937.331 359.219 936.22C360.332 935.109 361.699 934.553 363.322 934.553C364.736 934.553 365.893 934.921 366.795 935.657C367.696 936.378 368.275 937.256 368.53 938.292L365.848 939.193C365.487 937.947 364.668 937.324 363.39 937.324Z" fill="white" fill-opacity="0.9"/>
</g>
</g>
<defs>
<filter id="filter0_d_203_12" x="36.7462" y="322.466" width="698.81" height="203.86" filterUnits="userSpaceOnUse" color-interpolation-filters="sRGB">
<feFlood flood-opacity="0" result="BackgroundImageFix"/>
<feColorMatrix in="SourceAlpha" type="matrix" values="0 0 0 0 0 0 0 0 0 0 0 0 0 0 0 0 0 0 127 0" result="hardAlpha"/>
<feOffset/>
<feGaussianBlur stdDeviation="34.5"/>
<feComposite in2="hardAlpha" operator="out"/>
<feColorMatrix type="matrix" values="0 0 0 0 0.266667 0 0 0 0 1 0 0 0 0 0.25098 0 0 0 0.5 0"/>
<feBlend mode="normal" in2="BackgroundImageFix" result="effect1_dropShadow_203_12"/>
<feBlend mode="normal" in="SourceGraphic" in2="effect1_dropShadow_203_12" result="shape"/>
</filter>
<linearGradient id="paint0_linear_203_12" x1="1552.35" y1="412.579" x2="1594.96" y2="770.271" gradientUnits="userSpaceOnUse">
<stop stop-color="#44FF40" stop-opacity="0.8"/>
<stop offset="1" stop-opacity="0"/>
</linearGradient>
<linearGradient id="paint1_linear_203_12" x1="1217" y1="346.5" x2="1217" y2="382.5" gradientUnits="userSpaceOnUse">
<stop stop-color="#F99E30"/>
<stop offset="1" stop-color="#322009" stop-opacity="0"/>
</linearGradient>
<clipPath id="clip0_203_12">
<rect width="1920" height="1080" fill="white"/>
</clipPath>
<clipPath id="clip1_203_12">
<rect width="141" height="40.7449" fill="white" transform="translate(237 918.628)"/>
</clipPath>
</defs>
</svg>
